<svg xmlns="http://www.w3.org/2000/svg" viewBox="0 0 500 500"><g id="freepik--Sun--inject-52"><path d="M348.11,26.89a.5.5,0,0,1-.5-.5V18a.5.5,0,0,1,.5-.5.51.51,0,0,1,.5.5v8.36A.51.51,0,0,1,348.11,26.89Z" style="fill:#263238"></path><path d="M348.11,136.64a.5.5,0,0,1-.5-.5v-6.92a.5.5,0,0,1,.5-.5.51.51,0,0,1,.5.5v6.92A.5.5,0,0,1,348.11,136.64Z" style="fill:#263238"></path><path d="M407.15,78.3h-7.63a.5.5,0,0,1-.5-.5.51.51,0,0,1,.5-.5h7.63a.5.5,0,0,1,.5.5A.5.5,0,0,1,407.15,78.3Z" style="fill:#263238"></path><path d="M296.69,78.3h-7.63a.5.5,0,0,1-.5-.5.5.5,0,0,1,.5-.5h7.63a.51.51,0,0,1,.5.5A.5.5,0,0,1,296.69,78.3Z" style="fill:#263238"></path><path d="M384.46,42a.5.5,0,0,1-.35-.15.51.51,0,0,1,0-.71l5.75-5.75a.5.5,0,1,1,.71.71l-5.75,5.75A.51.51,0,0,1,384.46,42Z" style="fill:#263238"></path><path d="M306.71,119.71a.49.49,0,0,1-.35-.15.5.5,0,0,1,0-.71l5-5a.5.5,0,0,1,.71,0,.48.48,0,0,1,0,.7l-5,5A.51.51,0,0,1,306.71,119.71Z" style="fill:#263238"></path><path d="M311.75,42a.51.51,0,0,1-.36-.15l-5.75-5.75a.5.5,0,0,1,.71-.71l5.75,5.75a.5.5,0,0,1,0,.71A.49.49,0,0,1,311.75,42Z" style="fill:#263238"></path><path d="M389.5,119.71a.47.47,0,0,1-.35-.15l-5-5a.5.5,0,0,1,0-.7.5.5,0,0,1,.71,0l5,5a.5.5,0,0,1,0,.71A.47.47,0,0,1,389.5,119.71Z" style="fill:#263238"></path><circle cx="348.11" cy="77.09" r="20.72" style="fill:#92E3A9"></circle><path d="M348.11,98.31a21.22,21.22,0,1,1,21.22-21.22A21.24,21.24,0,0,1,348.11,98.31Zm0-41.44a20.22,20.22,0,1,0,20.22,20.22A20.24,20.24,0,0,0,348.11,56.87Z" style="fill:#263238"></path><path d="M348.11,52.11a.5.5,0,0,1-.5-.5V36.37a.5.5,0,0,1,.5-.5.5.5,0,0,1,.5.5V51.61A.51.51,0,0,1,348.11,52.11Z" style="fill:#263238"></path><path d="M348.11,119.75a.5.5,0,0,1-.5-.5V104a.5.5,0,0,1,.5-.5.51.51,0,0,1,.5.5v15.25A.51.51,0,0,1,348.11,119.75Z" style="fill:#263238"></path><path d="M389.55,78.31H374.3a.51.51,0,0,1-.5-.5.5.5,0,0,1,.5-.5h15.25a.5.5,0,0,1,.5.5A.51.51,0,0,1,389.55,78.31Z" style="fill:#263238"></path><path d="M321.91,78.31H306.67a.5.5,0,0,1-.5-.5.5.5,0,0,1,.5-.5h15.24a.5.5,0,0,1,.5.5A.51.51,0,0,1,321.91,78.31Z" style="fill:#263238"></path><path d="M366.63,59.78a.5.5,0,0,1-.35-.85l10.78-10.78a.48.48,0,0,1,.7,0,.5.5,0,0,1,0,.71L367,59.63A.47.47,0,0,1,366.63,59.78Z" style="fill:#263238"></path><path d="M318.8,107.61a.5.5,0,0,1-.35-.15.51.51,0,0,1,0-.71L329.23,96a.5.5,0,0,1,.71,0,.5.5,0,0,1,0,.7l-10.78,10.78A.51.51,0,0,1,318.8,107.61Z" style="fill:#263238"></path><path d="M329.58,59.78a.49.49,0,0,1-.35-.15L318.45,48.86a.51.51,0,0,1,0-.71.5.5,0,0,1,.71,0l10.78,10.78a.5.5,0,0,1,0,.7A.51.51,0,0,1,329.58,59.78Z" style="fill:#263238"></path><path d="M377.41,107.61a.47.47,0,0,1-.35-.15L366.28,96.68a.49.49,0,0,1,.7-.7l10.78,10.77a.5.5,0,0,1,0,.71A.47.47,0,0,1,377.41,107.61Z" style="fill:#263238"></path></g><g id="freepik--smoke-clouds--inject-52"><path d="M273,117.76a16.38,16.38,0,0,0-12-8.51c-8.51-1.16-12,7.35-14.7,12s-8.51-1.16-15.09-.77-7.35,4.25-9.67,7-8.9-.39-12.38,1.55-3.87,4.64-3.87,4.64h97.49s3.1-10.83-5-12-10.44,3.09-13.15,2.32-1.55-5.8-5.42-7A6.84,6.84,0,0,0,273,117.76Z" style="opacity:0.19"></path><path d="M176.84,142.28a16.38,16.38,0,0,0-12-8.51c-8.51-1.16-12,7.35-14.7,12s-8.51-1.16-15.09-.77-7.35,4.25-9.67,7-8.9-.39-12.38,1.55-3.87,4.64-3.87,4.64h97.5s3.09-10.83-5-12-10.45,3.09-13.16,2.32-1.54-5.8-5.41-7A6.84,6.84,0,0,0,176.84,142.28Z" style="opacity:0.19"></path><path d="M358.86,142.28a16.38,16.38,0,0,0-12-8.51c-8.51-1.16-12,7.35-14.7,12s-8.51-1.16-15.09-.77-7.35,4.25-9.67,7-8.9-.39-12.38,1.55-3.87,4.64-3.87,4.64h97.49s3.1-10.83-5-12-10.44,3.09-13.15,2.32-1.55-5.8-5.42-7A6.84,6.84,0,0,0,358.86,142.28Z" style="opacity:0.19"></path><path d="M406,218.14a8.82,8.82,0,0,0-6.45-4.58c-4.57-.62-6.44,3.95-7.9,6.45s-4.57-.63-8.1-.42-3.95,2.29-5.2,3.74-4.78-.2-6.65.84a3.79,3.79,0,0,0-2.08,2.49H422s1.67-5.82-2.7-6.44-5.61,1.66-7.07,1.24-.83-3.12-2.91-3.74A3.66,3.66,0,0,0,406,218.14Z" style="opacity:0.19"></path><path d="M120.69,218.14a8.82,8.82,0,0,0-6.44-4.58c-4.57-.62-6.44,3.95-7.9,6.45s-4.57-.63-8.11-.42-3.95,2.29-5.19,3.74-4.79-.2-6.66.84a3.79,3.79,0,0,0-2.08,2.49H136.7s1.66-5.82-2.7-6.44-5.62,1.66-7.07,1.24-.83-3.12-2.91-3.74A3.68,3.68,0,0,0,120.69,218.14Z" style="opacity:0.19"></path></g><g id="freepik--buildings-2--inject-52"><rect x="342.7" y="125.34" width="16.61" height="52.56" transform="translate(184.13 -192.4) rotate(40.76)" style="fill:#263238"></rect><path d="M340.18,177.65l-13.33-11.5,35-40.57,13.33,11.5ZM328.26,166l11.82,10.2,33.66-39.06L361.92,127Z" style="fill:#263238"></path><rect x="356.54" y="148.02" width="16.43" height="48.66" transform="translate(201.01 -196.35) rotate(40.76)" style="fill:#263238"></rect><path d="M355.14,196.84l-13.2-11.37,32.42-37.61,13.2,11.37Zm-11.79-11.48L355,195.43l31.11-36.09-11.68-10.07Z" style="fill:#263238"></path><polygon points="284.49 174.93 292.36 165.8 299.86 172.27 317.52 151.78 363.99 191.83 370.95 183.75 379.03 190.72 366.35 205.43 371.25 209.66 352.43 231.49 284.49 174.93" style="fill:#263238"></polygon><path d="M352.49,232.19,283.78,175l8.53-9.9,7.5,6.47,17.66-20.49,46.46,40.05,7-8.08,8.84,7.62-12.69,14.72,4.91,4.23ZM285.2,174.87l67.18,55.92,18.17-21.08-4.91-4.22,12.69-14.72L371,184.45l-7,8.09-46.46-40.06L299.91,173l-7.5-6.47Z" style="fill:#263238"></path><rect x="333.11" y="154.74" width="18.38" height="58.8" transform="translate(203.26 -178.82) rotate(40.76)" style="fill:#fff"></rect><path d="M330.11,213.12l-14.68-12.66,39.05-45.29,14.68,12.65Zm-13.27-12.76L330,211.71l37.74-43.78-13.16-11.35Z" style="fill:#263238"></path><rect x="337.62" y="158.63" width="18.38" height="58.8" transform="translate(206.9 -180.83) rotate(40.76)" style="fill:#fff"></rect><path d="M334.63,217,320,204.35l39-45.29,14.68,12.65Zm-13.27-12.76,13.16,11.35,37.74-43.78L359.1,160.47Z" style="fill:#263238"></path><rect x="350.72" y="161.22" width="27.15" height="3.97" transform="translate(194.93 -198.27) rotate(40.76)" style="fill:#fff"></rect><path d="M373.33,174.28,352,155.9l3.25-3.77,21.32,18.38ZM353.42,155.8l19.81,17.07,1.94-2.25-19.81-17.08Z" style="fill:#263238"></path><rect x="356.05" y="163.2" width="21.09" height="3.97" transform="matrix(0.76, 0.65, -0.65, 0.76, 196.78, -199.28)" style="fill:#fff"></rect><path d="M373.33,174.28,356.6,159.86l3.25-3.77,16.73,14.42ZM358,159.75l15.22,13.12,1.94-2.25L360,157.5Z" style="fill:#263238"></path><rect x="354.87" y="164.55" width="3.64" height="5.63" transform="translate(195.8 -192.29) rotate(40.76)" style="fill:#263238"></rect><rect x="359.63" y="168.65" width="3.64" height="5.63" transform="translate(199.63 -194.41) rotate(40.76)" style="fill:#263238"></rect><rect x="364.4" y="172.76" width="3.64" height="5.63" transform="translate(203.47 -196.52) rotate(40.76)" style="fill:#263238"></rect><rect x="350.8" y="159.92" width="1.06" height="5.63" transform="translate(191.49 -189.92) rotate(40.76)" style="fill:#263238"></rect><rect x="352.19" y="161.12" width="1.06" height="5.63" transform="translate(192.58 -190.52) rotate(40.76)" style="fill:#263238"></rect><rect x="345.16" y="166.46" width="1.06" height="5.63" transform="translate(194.39 -184.65) rotate(40.76)" style="fill:#263238"></rect><rect x="346.55" y="167.66" width="1.06" height="5.63" transform="translate(195.48 -185.26) rotate(40.76)" style="fill:#263238"></rect><rect x="339.53" y="173" width="1.06" height="5.63" transform="translate(197.27 -179.38) rotate(40.76)" style="fill:#263238"></rect><rect x="340.91" y="174.2" width="1.06" height="5.63" transform="translate(198.38 -179.99) rotate(40.76)" style="fill:#263238"></rect><rect x="333.89" y="179.54" width="1.06" height="5.63" transform="translate(200.17 -174.11) rotate(40.76)" style="fill:#263238"></rect><rect x="335.28" y="180.73" width="1.06" height="5.63" transform="translate(201.31 -174.74) rotate(40.76)" style="fill:#263238"></rect><rect x="328.26" y="186.08" width="1.06" height="5.63" transform="translate(203.07 -168.85) rotate(40.76)" style="fill:#263238"></rect><rect x="329.64" y="187.27" width="1.06" height="5.63" transform="translate(204.21 -169.47) rotate(40.76)" style="fill:#263238"></rect><rect x="349.23" y="171.08" width="3.64" height="5.63" transform="translate(198.7 -187.03) rotate(40.76)" style="fill:#263238"></rect><rect x="354" y="175.19" width="3.64" height="5.63" transform="translate(202.54 -189.14) rotate(40.76)" style="fill:#263238"></rect><rect x="358.76" y="179.3" width="3.64" height="5.63" transform="translate(206.37 -191.26) rotate(40.76)" style="fill:#263238"></rect><rect x="343.6" y="177.62" width="3.64" height="5.63" transform="translate(201.6 -181.76) rotate(40.76)" style="fill:#263238"></rect><rect x="348.36" y="181.73" width="3.64" height="5.63" transform="translate(205.43 -183.87) rotate(40.76)" style="fill:#263238"></rect><rect x="353.13" y="185.84" width="3.64" height="5.63" transform="matrix(0.76, 0.65, -0.65, 0.76, 209.28, -185.99)" style="fill:#263238"></rect><rect x="337.96" y="184.16" width="3.64" height="5.63" transform="translate(204.5 -176.5) rotate(40.76)" style="fill:#263238"></rect><rect x="342.73" y="188.27" width="3.64" height="5.63" transform="translate(208.34 -178.61) rotate(40.76)" style="fill:#263238"></rect><rect x="347.49" y="192.37" width="3.64" height="5.63" transform="translate(212.17 -180.72) rotate(40.76)" style="fill:#263238"></rect><rect x="332.33" y="190.7" width="3.64" height="5.63" transform="translate(207.4 -171.23) rotate(40.76)" style="fill:#263238"></rect><rect x="337.09" y="194.8" width="3.64" height="5.63" transform="translate(211.24 -173.34) rotate(40.76)" style="fill:#263238"></rect><rect x="341.85" y="198.91" width="3.64" height="5.63" transform="translate(215.08 -175.46) rotate(40.76)" style="fill:#263238"></rect><rect x="306.97" y="152.21" width="22.34" height="43.04" transform="translate(190.6 -165.58) rotate(40.76)" style="fill:#fff"></rect><path d="M312.61,198l-17.68-15.24,28.75-33.36,17.68,15.24Zm-16.27-15.35,16.16,13.94L340,164.78l-16.17-13.94Z" style="fill:#263238"></path><rect x="312.46" y="156.94" width="22.34" height="43.04" transform="translate(195.02 -168.01) rotate(40.76)" style="fill:#fff"></rect><path d="M318.09,202.76l-17.68-15.24,28.76-33.36,17.68,15.24Zm-16.27-15.35L318,201.35l27.45-31.85-16.17-13.93Z" style="fill:#263238"></path><rect x="318.84" y="157.9" width="33" height="2.91" transform="translate(185.39 -180.3) rotate(40.76)" style="fill:#fff"></rect><path d="M346.94,171.93l-25.75-22.2,2.55-3L349.49,169Zm-24.34-22.3,24.24,20.89,1.24-1.45-24.23-20.89Z" style="fill:#263238"></path><rect x="325.32" y="160.3" width="25.63" height="2.91" transform="translate(187.63 -181.53) rotate(40.76)" style="fill:#fff"></rect><path d="M346.94,171.93l-20.17-17.39,2.55-3L349.49,169Zm-18.76-17.49,18.66,16.08,1.24-1.45L329.42,153Z" style="fill:#263238"></path><rect x="326.44" y="159.37" width="4.43" height="4.12" transform="translate(185.12 -175.43) rotate(40.76)" style="fill:#263238"></rect><rect x="332.23" y="164.36" width="4.43" height="4.12" transform="translate(189.79 -178) rotate(40.76)" style="fill:#263238"></rect><rect x="338.03" y="169.35" width="4.43" height="4.12" transform="translate(194.45 -180.57) rotate(40.76)" style="fill:#263238"></rect><rect x="321.5" y="153.75" width="1.29" height="4.12" transform="translate(179.87 -172.54) rotate(40.76)" style="fill:#263238"></rect><rect x="323.18" y="155.2" width="1.29" height="4.12" transform="translate(181.25 -173.29) rotate(40.76)" style="fill:#263238"></rect><rect x="317.37" y="158.54" width="1.29" height="4.12" transform="translate(182 -168.68) rotate(40.76)" style="fill:#263238"></rect><rect x="319.06" y="159.99" width="1.29" height="4.12" transform="translate(183.35 -169.43) rotate(40.76)" style="fill:#263238"></rect><rect x="313.25" y="163.32" width="1.29" height="4.12" transform="translate(184.1 -164.82) rotate(40.76)" style="fill:#263238"></rect><rect x="314.93" y="164.77" width="1.29" height="4.12" transform="translate(185.47 -165.57) rotate(40.76)" style="fill:#263238"></rect><rect x="309.12" y="168.11" width="1.29" height="4.12" transform="translate(186.26 -160.98) rotate(40.77)" style="fill:#263238"></rect><rect x="310.81" y="169.56" width="1.29" height="4.12" transform="translate(187.62 -161.73) rotate(40.76)" style="fill:#263238"></rect><rect x="305" y="172.89" width="1.29" height="4.12" transform="translate(188.37 -157.12) rotate(40.76)" style="fill:#263238"></rect><rect x="306.68" y="174.34" width="1.29" height="4.12" transform="translate(189.7 -157.86) rotate(40.76)" style="fill:#263238"></rect><rect x="322.32" y="164.15" width="4.43" height="4.12" transform="translate(187.25 -171.58) rotate(40.76)" style="fill:#263238"></rect><rect x="328.11" y="169.14" width="4.43" height="4.12" transform="translate(191.91 -174.14) rotate(40.76)" style="fill:#263238"></rect><rect x="333.9" y="174.14" width="4.43" height="4.12" transform="translate(196.57 -176.71) rotate(40.76)" style="fill:#263238"></rect><rect x="318.19" y="168.94" width="4.43" height="4.12" transform="translate(189.37 -167.72) rotate(40.76)" style="fill:#263238"></rect><rect x="323.98" y="173.93" width="4.43" height="4.12" transform="matrix(0.76, 0.65, -0.65, 0.76, 194.03, -170.29)" style="fill:#263238"></rect><rect x="329.78" y="178.92" width="4.43" height="4.12" transform="translate(198.69 -172.86) rotate(40.76)" style="fill:#263238"></rect><rect x="314.07" y="173.72" width="4.43" height="4.12" transform="translate(191.49 -163.87) rotate(40.76)" style="fill:#263238"></rect><rect x="319.86" y="178.71" width="4.43" height="4.12" transform="translate(196.16 -166.44) rotate(40.76)" style="fill:#263238"></rect><rect x="325.65" y="183.71" width="4.43" height="4.12" transform="translate(200.82 -169.01) rotate(40.76)" style="fill:#263238"></rect><rect x="309.94" y="178.51" width="4.43" height="4.12" transform="translate(193.62 -160.01) rotate(40.76)" style="fill:#263238"></rect><rect x="315.73" y="183.5" width="4.43" height="4.12" transform="translate(198.29 -162.58) rotate(40.76)" style="fill:#263238"></rect><rect x="321.53" y="188.49" width="4.43" height="4.12" transform="translate(202.94 -165.15) rotate(40.76)" style="fill:#263238"></rect><rect x="342.18" y="182.56" width="22.34" height="43.04" transform="translate(218.96 -181.21) rotate(40.76)" style="fill:#fff"></rect><path d="M347.82,228.38l-17.68-15.24,28.75-33.36L376.57,195ZM331.55,213,347.71,227l27.45-31.84L359,181.19Z" style="fill:#263238"></path><rect x="347.67" y="187.29" width="22.34" height="43.04" transform="translate(223.38 -183.64) rotate(40.76)" style="fill:#fff"></rect><path d="M353.3,233.11l-17.68-15.24,28.76-33.36,17.68,15.24ZM337,217.76,353.2,231.7l27.45-31.84-16.17-13.94Z" style="fill:#263238"></path><rect x="354.05" y="188.25" width="33" height="2.91" transform="translate(213.75 -195.92) rotate(40.76)" style="fill:#fff"></rect><path d="M382.15,202.28l-25.75-22.2,2.55-3,25.75,22.2ZM357.81,180l24.24,20.89,1.24-1.44-24.23-20.89Z" style="fill:#263238"></path><rect x="360.53" y="190.65" width="25.63" height="2.91" transform="translate(215.99 -197.16) rotate(40.76)" style="fill:#fff"></rect><path d="M382.15,202.28,362,184.89l2.55-3,20.17,17.39Zm-18.76-17.49,18.66,16.08,1.24-1.44-18.65-16.09Z" style="fill:#263238"></path><rect x="361.65" y="189.72" width="4.43" height="4.12" transform="translate(213.47 -191.05) rotate(40.76)" style="fill:#263238"></rect><rect x="367.45" y="194.71" width="4.43" height="4.12" transform="translate(218.14 -193.63) rotate(40.76)" style="fill:#263238"></rect><rect x="373.24" y="199.7" width="4.43" height="4.12" transform="matrix(0.76, 0.65, -0.65, 0.76, 222.81, -196.2)" style="fill:#263238"></rect><rect x="356.71" y="184.1" width="1.29" height="4.12" transform="translate(208.21 -188.16) rotate(40.76)" style="fill:#263238"></rect><rect x="358.39" y="185.56" width="1.29" height="4.12" transform="translate(209.59 -188.91) rotate(40.76)" style="fill:#263238"></rect><rect x="352.58" y="188.89" width="1.29" height="4.12" transform="translate(210.36 -184.31) rotate(40.76)" style="fill:#263238"></rect><rect x="354.27" y="190.34" width="1.29" height="4.12" transform="translate(211.73 -185.06) rotate(40.76)" style="fill:#263238"></rect><rect x="348.46" y="193.67" width="1.29" height="4.12" transform="translate(212.5 -180.46) rotate(40.77)" style="fill:#263238"></rect><rect x="350.14" y="195.13" width="1.29" height="4.12" transform="translate(213.85 -181.21) rotate(40.76)" style="fill:#263238"></rect><rect x="344.33" y="198.46" width="1.29" height="4.12" transform="translate(214.58 -176.59) rotate(40.76)" style="fill:#263238"></rect><rect x="346.02" y="199.91" width="1.29" height="4.12" transform="translate(215.94 -177.34) rotate(40.76)" style="fill:#263238"></rect><rect x="340.21" y="203.25" width="1.29" height="4.12" transform="translate(216.73 -172.75) rotate(40.76)" style="fill:#263238"></rect><rect x="341.89" y="204.7" width="1.29" height="4.12" transform="translate(218.08 -173.49) rotate(40.76)" style="fill:#263238"></rect><rect x="357.53" y="194.51" width="4.43" height="4.12" transform="translate(215.6 -187.2) rotate(40.76)" style="fill:#263238"></rect><rect x="363.32" y="199.5" width="4.43" height="4.12" transform="translate(220.27 -189.77) rotate(40.76)" style="fill:#263238"></rect><rect x="369.11" y="204.49" width="4.43" height="4.12" transform="matrix(0.76, 0.65, -0.65, 0.76, 224.93, -192.34)" style="fill:#263238"></rect><rect x="353.4" y="199.29" width="4.43" height="4.12" transform="translate(217.73 -183.35) rotate(40.76)" style="fill:#263238"></rect><rect x="359.2" y="204.28" width="4.43" height="4.12" transform="translate(222.39 -185.92) rotate(40.76)" style="fill:#263238"></rect><rect x="364.99" y="209.27" width="4.43" height="4.12" transform="translate(227.06 -188.49) rotate(40.76)" style="fill:#263238"></rect><rect x="349.28" y="204.08" width="4.43" height="4.12" transform="translate(219.86 -179.5) rotate(40.76)" style="fill:#263238"></rect><rect x="355.07" y="209.07" width="4.43" height="4.12" transform="matrix(0.76, 0.65, -0.65, 0.76, 224.52, -182.06)" style="fill:#263238"></rect><rect x="360.86" y="214.06" width="4.43" height="4.12" transform="translate(229.17 -184.63) rotate(40.76)" style="fill:#263238"></rect><rect x="345.15" y="208.86" width="4.43" height="4.12" transform="translate(221.98 -175.64) rotate(40.76)" style="fill:#263238"></rect><rect x="350.95" y="213.85" width="4.43" height="4.12" transform="translate(226.64 -178.21) rotate(40.76)" style="fill:#263238"></rect><rect x="356.74" y="218.84" width="4.43" height="4.12" transform="translate(231.3 -180.78) rotate(40.76)" style="fill:#263238"></rect></g><g id="freepik--buildings-1--inject-52"><polygon points="149.66 236.61 141.34 227.89 148.51 221.05 129.83 201.48 174.21 159.13 166.85 151.41 174.57 144.05 187.98 158.1 192.67 153.63 212.56 174.48 149.66 236.61" style="fill:#263238"></polygon><path d="M149.65,237.32l-9-9.45L147.8,221l-18.67-19.57,44.38-42.35-7.37-7.72,8.44-8L188,157.4l4.68-4.47,20.59,21.56-.35.35Zm-7.6-9.42,7.62,8,62.19-61.43-19.21-20.13L188,158.81l-13.42-14.06-7,6.68,7.36,7.72-44.38,42.34,18.68,19.57Z" style="fill:#263238"></path><rect x="144.54" y="209.43" width="14.84" height="19.45" transform="translate(-109.27 165.5) rotate(-43.66)" style="fill:#fff"></rect><path d="M153.29,232l-14.12-14.8,11.46-10.93,14.12,14.79Zm-12.7-14.76,12.73,13.35,10-9.56L150.6,207.7Z" style="fill:#263238"></path><rect x="150.6" y="207" width="7.81" height="19.45" transform="translate(-106.89 166.59) rotate(-43.66)" style="fill:#fff"></rect><path d="M158.38,227.17l-14.12-14.8,6.37-6.08,14.12,14.79ZM145.67,212.4l12.74,13.35,4.93-4.7L150.6,207.7Z" style="fill:#263238"></path><polygon points="124.62 167.87 130.38 179.17 167.29 217.85 177.57 208.04 132.27 160.57 124.62 167.87" style="fill:#fff"></polygon><path d="M167.28,218.56l-37.34-39.17L124,167.77l8.29-7.91,46,48.2Zm-36.49-39.69,36.52,38.27,9.55-9.12-44.6-46.75-7,6.71Z" style="fill:#263238"></path><polygon points="121.1 171.23 126.86 182.52 163.78 221.21 174.06 211.4 128.75 163.92 121.1 171.23" style="fill:#fff"></polygon><path d="M163.76,221.91l-37.34-39.16-5.94-11.63,8.29-7.9,46,48.19Zm-36.48-39.68,36.51,38.27,9.56-9.12-44.61-46.75-7,6.7Z" style="fill:#263238"></path><line x1="126.71" y1="166.39" x2="171.76" y2="213.59" style="fill:#fff"></line><rect x="148.73" y="157.37" width="1" height="65.25" transform="translate(-89.89 155.56) rotate(-43.66)" style="fill:#263238"></rect><line x1="124.51" y1="175.72" x2="129.38" y2="171.08" style="fill:#fff"></line><rect x="123.58" y="172.9" width="6.73" height="1" transform="translate(-84.6 135.58) rotate(-43.65)" style="fill:#263238"></rect><line x1="128.38" y1="179.78" x2="133.25" y2="175.14" style="fill:#fff"></line><rect x="127.45" y="176.96" width="6.73" height="1" transform="translate(-86.33 139.37) rotate(-43.65)" style="fill:#263238"></rect><line x1="132.26" y1="183.84" x2="137.12" y2="179.19" style="fill:#fff"></line><rect x="131.32" y="181.02" width="6.73" height="1" transform="translate(-88.06 143.17) rotate(-43.65)" style="fill:#263238"></rect><line x1="136.13" y1="187.9" x2="141" y2="183.25" style="fill:#fff"></line><rect x="135.2" y="185.07" width="6.73" height="1" transform="translate(-89.79 146.96) rotate(-43.65)" style="fill:#263238"></rect><line x1="140" y1="191.95" x2="144.87" y2="187.31" style="fill:#fff"></line><rect x="139.07" y="189.13" width="6.73" height="1" transform="translate(-91.52 150.75) rotate(-43.65)" style="fill:#263238"></rect><line x1="143.87" y1="196.01" x2="148.74" y2="191.37" style="fill:#fff"></line><rect x="142.94" y="193.19" width="6.73" height="1" transform="translate(-93.25 154.55) rotate(-43.65)" style="fill:#263238"></rect><line x1="147.74" y1="200.07" x2="152.61" y2="195.42" style="fill:#fff"></line><rect x="146.81" y="197.25" width="6.73" height="1" transform="translate(-94.98 158.34) rotate(-43.65)" style="fill:#263238"></rect><line x1="151.61" y1="204.13" x2="156.48" y2="199.48" style="fill:#fff"></line><rect x="150.68" y="201.3" width="6.73" height="1" transform="translate(-96.72 162.14) rotate(-43.65)" style="fill:#263238"></rect><line x1="155.49" y1="208.18" x2="160.35" y2="203.54" style="fill:#fff"></line><rect x="154.56" y="205.36" width="6.73" height="1" transform="translate(-98.45 165.93) rotate(-43.65)" style="fill:#263238"></rect><line x1="159.36" y1="212.24" x2="164.23" y2="207.6" style="fill:#fff"></line><rect x="158.43" y="209.42" width="6.73" height="1" transform="translate(-100.18 169.73) rotate(-43.65)" style="fill:#263238"></rect><line x1="163.23" y1="216.3" x2="168.1" y2="211.65" style="fill:#fff"></line><rect x="162.3" y="213.48" width="6.73" height="1" transform="translate(-101.91 173.52) rotate(-43.65)" style="fill:#263238"></rect><rect x="155.26" y="150.57" width="18.38" height="58.8" transform="translate(-78.77 163.29) rotate(-43.66)" style="fill:#fff"></rect><path d="M178.08,208.29,136.8,165l14-13.39,41.29,43.27Zm-39.87-43.23,39.91,41.82,12.57-12-39.9-41.82Z" style="fill:#263238"></path><rect x="159.57" y="146.45" width="18.38" height="58.8" transform="translate(-74.73 165.13) rotate(-43.66)" style="fill:#fff"></rect><path d="M182.4,204.18l-41.29-43.27,14-13.38,41.29,43.27Zm-39.87-43.24,39.9,41.83,12.58-12L155.1,148.94Z" style="fill:#263238"></path><rect x="132.18" y="154.05" width="27.15" height="3.97" transform="translate(-67.42 143.77) rotate(-43.66)" style="fill:#fff"></rect><path d="M137.29,167.55l-3.43-3.6,20.36-19.43,3.44,3.6Zm-2-3.56,2,2.15,18.92-18-2.05-2.15Z" style="fill:#263238"></path><rect x="137.41" y="151.96" width="21.09" height="3.97" transform="translate(-65.37 144.7) rotate(-43.66)" style="fill:#fff"></rect><path d="M141.68,163.37l-3.44-3.6,16-15.25,3.44,3.6Zm-2-3.57,2.05,2.16,14.53-13.87-2.05-2.15Z" style="fill:#263238"></path><rect x="147.33" y="161.2" width="3.64" height="5.63" transform="translate(-71.98 148.32) rotate(-43.66)" style="fill:#263238"></rect><rect x="151.88" y="156.86" width="3.64" height="5.63" transform="translate(-67.73 150.26) rotate(-43.66)" style="fill:#263238"></rect><rect x="156.43" y="152.51" width="3.64" height="5.63" transform="translate(-63.47 152.2) rotate(-43.66)" style="fill:#263238"></rect><rect x="143.5" y="166.08" width="1.06" height="5.63" transform="translate(-76.77 146.13) rotate(-43.66)" style="fill:#263238"></rect><rect x="144.82" y="164.82" width="1.06" height="5.63" transform="translate(-75.53 146.71) rotate(-43.66)" style="fill:#263238"></rect><rect x="149.46" y="172.33" width="1.06" height="5.63" transform="translate(-79.43 151.99) rotate(-43.66)" style="fill:#263238"></rect><rect x="150.78" y="171.07" width="1.06" height="5.63" transform="translate(-78.2 152.54) rotate(-43.66)" style="fill:#263238"></rect><rect x="155.42" y="178.57" width="1.06" height="5.63" transform="translate(-82.1 157.81) rotate(-43.66)" style="fill:#263238"></rect><rect x="156.74" y="177.31" width="1.06" height="5.63" transform="translate(-80.86 158.38) rotate(-43.66)" style="fill:#263238"></rect><rect x="161.38" y="184.82" width="1.06" height="5.63" transform="matrix(0.72, -0.69, 0.69, 0.72, -84.76, 163.65)" style="fill:#263238"></rect><rect x="162.7" y="183.56" width="1.06" height="5.63" transform="translate(-83.52 164.23) rotate(-43.66)" style="fill:#263238"></rect><rect x="167.34" y="191.06" width="1.06" height="5.63" transform="translate(-87.42 169.49) rotate(-43.66)" style="fill:#263238"></rect><rect x="168.66" y="189.8" width="1.06" height="5.63" transform="matrix(0.72, -0.69, 0.69, 0.72, -86.19, 170.06)" style="fill:#263238"></rect><rect x="153.29" y="167.44" width="3.64" height="5.63" transform="translate(-74.65 154.16) rotate(-43.66)" style="fill:#263238"></rect><rect x="157.84" y="163.1" width="3.64" height="5.63" transform="translate(-70.39 156.1) rotate(-43.66)" style="fill:#263238"></rect><rect x="162.39" y="158.76" width="3.64" height="5.63" transform="translate(-66.13 158.04) rotate(-43.66)" style="fill:#263238"></rect><rect x="159.25" y="173.69" width="3.64" height="5.63" transform="translate(-77.31 160) rotate(-43.66)" style="fill:#263238"></rect><rect x="163.8" y="169.35" width="3.64" height="5.63" transform="translate(-73.05 161.94) rotate(-43.66)" style="fill:#263238"></rect><rect x="168.35" y="165" width="3.64" height="5.63" transform="translate(-68.8 163.88) rotate(-43.66)" style="fill:#263238"></rect><rect x="165.21" y="179.93" width="3.64" height="5.63" transform="translate(-79.97 165.84) rotate(-43.66)" style="fill:#263238"></rect><rect x="169.76" y="175.59" width="3.64" height="5.63" transform="translate(-75.72 167.78) rotate(-43.66)" style="fill:#263238"></rect><rect x="174.31" y="171.25" width="3.64" height="5.63" transform="translate(-71.46 169.72) rotate(-43.66)" style="fill:#263238"></rect><rect x="171.16" y="186.18" width="3.64" height="5.63" transform="translate(-82.64 171.68) rotate(-43.66)" style="fill:#263238"></rect><rect x="175.72" y="181.84" width="3.64" height="5.63" transform="translate(-78.38 173.62) rotate(-43.66)" style="fill:#263238"></rect><rect x="180.27" y="177.49" width="3.64" height="5.63" transform="translate(-74.12 175.56) rotate(-43.66)" style="fill:#263238"></rect><rect x="185.03" y="176.29" width="18.05" height="12.29" transform="translate(-72.28 184.41) rotate(-43.66)" style="fill:#fff"></rect><path d="M191.76,193.82l-9.18-9.62,13.78-13.15,9.18,9.62ZM184,184.23l7.8,8.17,12.33-11.77-7.79-8.17Z" style="fill:#263238"></path><rect x="187.99" y="175.1" width="14.62" height="12.29" transform="translate(-71.12 184.94) rotate(-43.66)" style="fill:#fff"></rect><path d="M194.24,191.45l-9.18-9.62,11.3-10.78,9.18,9.62Zm-7.77-9.58,7.8,8.17,9.85-9.41-7.79-8.17Z" style="fill:#263238"></path><rect x="177.71" y="174.83" width="21.69" height="3.65" transform="translate(-69.81 179.01) rotate(-43.66)" style="fill:#fff"></rect><path d="M182,186.16l-3.21-3.36,16.42-15.66,3.2,3.36Zm-1.79-3.33,1.82,1.92,15-14.28-1.83-1.92Z" style="fill:#263238"></path><rect x="180.82" y="173.58" width="18.08" height="3.65" transform="translate(-68.59 179.57) rotate(-43.66)" style="fill:#fff"></rect><path d="M184.56,183.67l-3.21-3.36,13.81-13.17,3.2,3.36Zm-1.79-3.33,1.82,1.92L197,170.47l-1.83-1.92Z" style="fill:#263238"></path><rect x="187.15" y="178.24" width="11.36" height="1" transform="translate(-70.07 182.53) rotate(-43.65)" style="fill:#263238"></rect><rect x="188.72" y="179.88" width="11.36" height="1" transform="translate(-70.77 184.07) rotate(-43.65)" style="fill:#263238"></rect><rect x="190.29" y="181.53" width="11.36" height="1" transform="translate(-71.47 185.61) rotate(-43.65)" style="fill:#263238"></rect><rect x="191.86" y="183.17" width="11.36" height="1" transform="translate(-72.17 187.15) rotate(-43.65)" style="fill:#263238"></rect></g><g id="freepik--Factory--inject-52"><path d="M247.7,94.93s.52,2,1.43-10.36-7.25-14.79-12.08-11.77-6.64.6-11.77-7.85-18.41-13.88-24.14-8.15S193.89,67.37,190,64.35s-9.06-10.87-16-9.66-8.75,10.86-11.47,12.07-9.05-7.85-16.3-3.92-7.24,7.85-8.15,9.36-4.22-3.93-9.35-3.32-6.95,5.73-6.95,5.73H218A42.13,42.13,0,0,1,230.11,80c6.64,4.23,10.26,1.29,12.37,1s1.78,13.9,1.78,13.9Z" style="opacity:0.19"></path><path d="M261,94.93s.52,2,1.42-10.36-7.21-14.79-12-11.77-6.6.6-11.71-7.85-18.32-13.88-24-8.15-7.2,10.57-11.11,7.55-9-10.87-15.91-9.66-8.71,10.86-11.42,12.07-9-7.85-16.21-3.92-7.21,7.85-8.11,9.36-4.21-3.93-9.31-3.32-6.91,5.73-6.91,5.73h95.8a41.84,41.84,0,0,1,12,5.43c6.6,4.23,10.2,1.29,12.3,1s1.77,13.9,1.77,13.9Z" style="opacity:0.19"></path><path d="M274.86,94.93s.51,2,1.41-10.36-7.2-14.79-12-11.77-6.61.6-11.71-7.85-18.32-13.88-24-8.15-7.21,10.57-11.11,7.55-9-10.87-15.92-9.66-8.71,10.86-11.41,12.07-9-7.85-16.22-3.92-7.21,7.85-8.11,9.36-4.2-3.93-9.31-3.32-6.91,5.73-6.91,5.73h95.81a41.72,41.72,0,0,1,12,5.43c6.61,4.23,10.21,1.29,12.31,1s1.77,13.9,1.77,13.9Z" style="opacity:0.19"></path><polygon points="248.37 94.75 243.23 94.75 240.66 158.68 250.93 158.68 248.37 94.75" style="fill:#92E3A9"></polygon><path d="M251.46,159.18H240.14l2.61-64.93h6.1Zm-10.28-1h9.23l-2.52-62.93h-4.18Z" style="fill:#263238"></path><path d="M248.33,95.31h-5.07a.55.55,0,0,1-.55-.55h0a.55.55,0,0,1,.55-.55h5.07a.54.54,0,0,1,.55.55h0A.55.55,0,0,1,248.33,95.31Z" style="fill:#fff"></path><path d="M248.33,95.81h-5.07a1.05,1.05,0,1,1,0-2.1h5.07a1,1,0,0,1,0,2.1Zm-5.07-1.1v.1h5.07a0,0,0,0,0,0,0Z" style="fill:#263238"></path><polygon points="243.11 97.68 243.02 99.99 248.58 99.99 248.48 97.68 243.11 97.68" style="fill:#fff"></polygon><path d="M249.1,100.49h-6.6l.13-3.31H249Zm-5.56-1h4.52L248,98.18h-4.41Z" style="fill:#263238"></path><polygon points="250.58 149.88 250.49 147.57 241.11 147.57 241.02 149.88 250.58 149.88" style="fill:#fff"></polygon><path d="M251.1,150.38H240.5l.13-3.31H251Zm-9.56-1h8.52l-.05-1.31h-8.42Z" style="fill:#263238"></path><polygon points="241.68 133.32 241.59 135.62 250.01 135.62 249.92 133.32 241.68 133.32" style="fill:#fff"></polygon><path d="M250.53,136.12h-9.46l.13-3.3h9.2Zm-8.42-1h7.38l-.05-1.3h-7.28Z" style="fill:#263238"></path><polygon points="241.4 140.44 241.3 142.75 250.29 142.75 250.2 140.44 241.4 140.44" style="fill:#fff"></polygon><path d="M250.82,143.25h-10l.14-3.31h9.76Zm-9-1h8l-.05-1.31h-7.84Z" style="fill:#263238"></path><polygon points="241.97 126.19 241.88 128.5 249.72 128.5 249.63 126.19 241.97 126.19" style="fill:#fff"></polygon><path d="M250.24,129h-8.88l.13-3.31h8.62Zm-7.84-1h6.8l0-1.31h-6.7Z" style="fill:#263238"></path><polygon points="242.83 104.81 242.73 107.11 248.86 107.11 248.77 104.81 242.83 104.81" style="fill:#fff"></polygon><path d="M249.38,107.61h-7.17l.14-3.3h6.9Zm-6.13-1h5.09l-.05-1.3h-5Z" style="fill:#263238"></path><polygon points="242.25 119.06 242.16 121.37 249.44 121.37 249.34 119.06 242.25 119.06" style="fill:#fff"></polygon><path d="M250,121.87h-8.32l.13-3.31h8Zm-7.28-1h6.24l-.06-1.31h-6.13Z" style="fill:#263238"></path><polygon points="242.54 111.94 242.45 114.24 249.15 114.24 249.06 111.94 242.54 111.94" style="fill:#fff"></polygon><path d="M249.67,114.74h-7.74l.13-3.3h7.48Zm-6.7-1h5.66l0-1.3H243Z" style="fill:#263238"></path><polygon points="262.2 94.75 257.07 94.75 254.5 158.68 264.77 158.68 262.2 94.75" style="fill:#92E3A9"></polygon><path d="M265.29,159.18H254l2.61-64.93h6.09Zm-10.27-1h9.23l-2.53-62.93h-4.17Z" style="fill:#263238"></path><path d="M262.17,95.31H257.1a.55.55,0,0,1-.55-.55h0a.54.54,0,0,1,.55-.55h5.07a.55.55,0,0,1,.55.55h0A.55.55,0,0,1,262.17,95.31Z" style="fill:#fff"></path><path d="M262.17,95.81H257.1a1,1,0,0,1,0-2.1h5.07a1,1,0,1,1,0,2.1Zm-5.07-1.1v.1h5.07a0,0,0,0,0,.05,0Z" style="fill:#263238"></path><polygon points="256.95 97.68 256.86 99.99 262.41 99.99 262.32 97.68 256.95 97.68" style="fill:#fff"></polygon><path d="M262.93,100.49h-6.59l.13-3.31h6.33Zm-5.55-1h4.51l-.05-1.31h-4.41Z" style="fill:#263238"></path><polygon points="264.42 149.88 264.32 147.57 254.94 147.57 254.85 149.88 264.42 149.88" style="fill:#fff"></polygon><path d="M264.94,150.38H254.33l.13-3.31H264.8Zm-9.57-1h8.53l-.06-1.31h-8.42Z" style="fill:#263238"></path><polygon points="255.52 133.32 255.42 135.62 263.84 135.62 263.75 133.32 255.52 133.32" style="fill:#fff"></polygon><path d="M264.36,136.12H254.9l.14-3.3h9.19Zm-8.42-1h7.38l-.05-1.3H256Z" style="fill:#263238"></path><polygon points="255.23 140.44 255.14 142.75 264.13 142.75 264.04 140.44 255.23 140.44" style="fill:#fff"></polygon><path d="M264.65,143.25h-10l.13-3.31h9.77Zm-9-1h8l-.05-1.31h-7.85Z" style="fill:#263238"></path><polygon points="255.8 126.19 255.71 128.5 263.56 128.5 263.46 126.19 255.8 126.19" style="fill:#fff"></polygon><path d="M264.08,129h-8.89l.13-3.31h8.62Zm-7.85-1H263l-.06-1.31h-6.7Z" style="fill:#263238"></path><polygon points="256.66 104.81 256.57 107.11 262.7 107.11 262.61 104.81 256.66 104.81" style="fill:#fff"></polygon><path d="M263.22,107.61h-7.17l.13-3.3h6.91Zm-6.13-1h5.09l-.05-1.3h-5Z" style="fill:#263238"></path><polygon points="256.09 119.06 256 121.37 263.27 121.37 263.18 119.06 256.09 119.06" style="fill:#fff"></polygon><path d="M263.79,121.87h-8.31l.13-3.31h8.05Zm-7.27-1h6.23l-.05-1.31h-6.13Z" style="fill:#263238"></path><polygon points="256.38 111.94 256.28 114.24 262.98 114.24 262.89 111.94 256.38 111.94" style="fill:#fff"></polygon><path d="M263.51,114.74h-7.75l.14-3.3h7.47Zm-6.71-1h5.66l0-1.3h-5.55Z" style="fill:#263238"></path><polygon points="276.04 94.75 270.9 94.75 268.33 158.68 278.6 158.68 276.04 94.75" style="fill:#92E3A9"></polygon><path d="M279.12,159.18H267.81l2.61-64.93h6.1Zm-10.27-1h9.23l-2.52-62.93h-4.18Z" style="fill:#263238"></path><path d="M276,95.31h-5.07a.55.55,0,0,1-.55-.55h0a.55.55,0,0,1,.55-.55H276a.54.54,0,0,1,.55.55h0A.55.55,0,0,1,276,95.31Z" style="fill:#fff"></path><path d="M276,95.81h-5.07a1,1,0,0,1,0-2.1H276a1,1,0,1,1,0,2.1Zm-5.07-1.1v.1H276a0,0,0,0,0,.05,0Z" style="fill:#263238"></path><polygon points="270.78 97.68 270.69 99.99 276.25 99.99 276.15 97.68 270.78 97.68" style="fill:#fff"></polygon><path d="M276.77,100.49h-6.6l.13-3.31h6.33Zm-5.56-1h4.52l-.06-1.31h-4.41Z" style="fill:#263238"></path><polygon points="278.25 149.88 278.16 147.57 268.78 147.57 268.69 149.88 278.25 149.88" style="fill:#fff"></polygon><path d="M278.77,150.38h-10.6l.13-3.31h10.34Zm-9.56-1h8.52l-.05-1.31h-8.42Z" style="fill:#263238"></path><polygon points="269.35 133.32 269.26 135.62 277.68 135.62 277.59 133.32 269.35 133.32" style="fill:#fff"></polygon><path d="M278.2,136.12h-9.46l.13-3.3h9.2Zm-8.42-1h7.38l-.05-1.3h-7.28Z" style="fill:#263238"></path><polygon points="269.06 140.44 268.97 142.75 277.96 142.75 277.87 140.44 269.06 140.44" style="fill:#fff"></polygon><path d="M278.48,143.25h-10l.14-3.31h9.76Zm-9-1h7.95l-.05-1.31h-7.84Z" style="fill:#263238"></path><polygon points="269.64 126.19 269.55 128.5 277.39 128.5 277.3 126.19 269.64 126.19" style="fill:#fff"></polygon><path d="M277.91,129H269l.14-3.31h8.62Zm-7.84-1h6.8l-.05-1.31h-6.7Z" style="fill:#263238"></path><polygon points="270.5 104.81 270.4 107.11 276.53 107.11 276.44 104.81 270.5 104.81" style="fill:#fff"></polygon><path d="M277.05,107.61h-7.17l.14-3.3h6.9Zm-6.13-1H276l-.05-1.3h-5Z" style="fill:#263238"></path><polygon points="269.92 119.06 269.83 121.37 277.11 121.37 277.01 119.06 269.92 119.06" style="fill:#fff"></polygon><path d="M277.63,121.87h-8.32l.13-3.31h8.05Zm-7.28-1h6.24l-.06-1.31H270.4Z" style="fill:#263238"></path><polygon points="270.21 111.94 270.12 114.24 276.82 114.24 276.73 111.94 270.21 111.94" style="fill:#fff"></polygon><path d="M277.34,114.74H269.6l.13-3.3h7.48Zm-6.7-1h5.66l-.05-1.3h-5.56Z" style="fill:#263238"></path><rect x="199.42" y="144.06" width="20.44" height="43.6" style="fill:#263238"></rect><path d="M219.86,188.16H199.42a.5.5,0,0,1-.5-.5v-43.6a.5.5,0,0,1,.5-.5h20.44a.5.5,0,0,1,.5.5v43.6A.51.51,0,0,1,219.86,188.16Zm-19.94-1h19.44v-42.6H199.92Z" style="fill:#263238"></path><polygon points="218.94 138.24 230.01 144.71 227.88 144.71 216.89 139.21 218.94 138.24" style="fill:#fff"></polygon><path d="M231.86,145.21h-4.09l-12-6,3.23-1.52Zm-3.86-1h.16l-9.24-5.4-.89.41Z" style="fill:#263238"></path><polygon points="228.85 187.66 208.41 187.66 208.41 144.06 218.94 138.24 228.85 144.06 228.85 187.66" style="fill:#92E3A9"></polygon><path d="M228.85,188.16H208.41a.51.51,0,0,1-.5-.5v-43.6a.51.51,0,0,1,.26-.44l10.53-5.81a.5.5,0,0,1,.5,0l9.9,5.82a.48.48,0,0,1,.25.43v43.6A.5.5,0,0,1,228.85,188.16Zm-19.94-1h19.44V144.35l-9.41-5.53-10,5.53Z" style="fill:#263238"></path><polygon points="197.84 145 206.84 145 218.94 138.24 209.83 138.24 197.84 145" style="fill:#8f8f8f"></polygon><path d="M206.84,145.5h-9a.5.5,0,0,1-.49-.37.49.49,0,0,1,.24-.56l12-6.76a.55.55,0,0,1,.25-.07H219a.51.51,0,0,1,.48.38.49.49,0,0,1-.24.56l-12.11,6.76A.48.48,0,0,1,206.84,145.5Zm-7.09-1h7L217,138.74H210Z" style="fill:#263238"></path><rect x="217.22" y="142.02" width="3.3" height="2.99" style="fill:#263238"></rect><path d="M221,145.5h-4.3v-4H221Zm-3.3-1H220v-2h-2.3Z" style="fill:#263238"></path><rect x="211.68" y="150.83" width="66.08" height="36.82" style="fill:#263238"></rect><path d="M277.76,188.16H211.68a.5.5,0,0,1-.5-.5V150.83a.5.5,0,0,1,.5-.5h66.08a.51.51,0,0,1,.5.5v36.83A.51.51,0,0,1,277.76,188.16Zm-65.58-1h65.08V151.33H212.18Z" style="fill:#263238"></path><rect x="240.76" y="150.83" width="69.96" height="36.82" style="fill:#fff"></rect><path d="M310.72,188.16h-70a.5.5,0,0,1-.5-.5V150.83a.5.5,0,0,1,.5-.5h70a.51.51,0,0,1,.5.5v36.83A.51.51,0,0,1,310.72,188.16Zm-69.46-1h69V151.33h-69Z" style="fill:#263238"></path><rect x="249.71" y="164.94" width="11.53" height="22.71" style="fill:#fff"></rect><path d="M261.24,188.16H249.71a.5.5,0,0,1-.5-.5V164.94a.5.5,0,0,1,.5-.5h11.53a.5.5,0,0,1,.5.5v22.72A.5.5,0,0,1,261.24,188.16Zm-11-1h10.53V165.44H250.21Z" style="fill:#263238"></path><rect x="249.71" y="164.94" width="9.64" height="22.71" style="fill:#263238"></rect><path d="M259.35,188.16h-9.64a.5.5,0,0,1-.5-.5V164.94a.5.5,0,0,1,.5-.5h9.64a.51.51,0,0,1,.5.5v22.72A.51.51,0,0,1,259.35,188.16Zm-9.14-1h8.64V165.44h-8.64Z" style="fill:#263238"></path><rect x="270.36" y="164.94" width="11.53" height="22.71" style="fill:#fff"></rect><path d="M281.89,188.16H270.36a.5.5,0,0,1-.5-.5V164.94a.5.5,0,0,1,.5-.5h11.53a.51.51,0,0,1,.5.5v22.72A.51.51,0,0,1,281.89,188.16Zm-11-1h10.53V165.44H270.86Z" style="fill:#263238"></path><rect x="270.36" y="164.94" width="9.64" height="22.71" style="fill:#263238"></rect><path d="M280,188.16h-9.64a.5.5,0,0,1-.5-.5V164.94a.5.5,0,0,1,.5-.5H280a.51.51,0,0,1,.5.5v22.72A.51.51,0,0,1,280,188.16Zm-9.14-1h8.64V165.44h-8.64Z" style="fill:#263238"></path><rect x="291.01" y="164.94" width="11.53" height="22.71" style="fill:#fff"></rect><path d="M302.54,188.16H291a.5.5,0,0,1-.5-.5V164.94a.5.5,0,0,1,.5-.5h11.53a.51.51,0,0,1,.5.5v22.72A.51.51,0,0,1,302.54,188.16Zm-11-1H302V165.44H291.51Z" style="fill:#263238"></path><rect x="291.01" y="164.94" width="9.64" height="22.71" style="fill:#263238"></rect><path d="M300.64,188.16H291a.5.5,0,0,1-.5-.5V164.94a.5.5,0,0,1,.5-.5h9.63a.5.5,0,0,1,.5.5v22.72A.5.5,0,0,1,300.64,188.16Zm-9.13-1h8.63V165.44h-8.63Z" style="fill:#263238"></path><rect x="214.33" y="155.05" width="6.29" height="5.77" style="fill:#fff"></rect><path d="M220.62,161.32h-6.29a.51.51,0,0,1-.5-.5v-5.77a.5.5,0,0,1,.5-.5h6.29a.5.5,0,0,1,.5.5v5.77A.5.5,0,0,1,220.62,161.32Zm-5.79-1h5.29v-4.77h-5.29Z" style="fill:#263238"></path><rect x="222.84" y="155.05" width="6.29" height="5.77" style="fill:#fff"></rect><path d="M229.13,161.32h-6.29a.5.5,0,0,1-.5-.5v-5.77a.5.5,0,0,1,.5-.5h6.29a.5.5,0,0,1,.5.5v5.77A.51.51,0,0,1,229.13,161.32Zm-5.79-1h5.29v-4.77h-5.29Z" style="fill:#263238"></path><rect x="231.34" y="155.05" width="6.29" height="5.77" style="fill:#fff"></rect><path d="M237.63,161.32h-6.29a.5.5,0,0,1-.5-.5v-5.77a.5.5,0,0,1,.5-.5h6.29a.5.5,0,0,1,.5.5v5.77A.51.51,0,0,1,237.63,161.32Zm-5.79-1h5.29v-4.77h-5.29Z" style="fill:#263238"></path><rect x="250.64" y="155.05" width="9.39" height="5.77" style="fill:#fff"></rect><path d="M260,161.32h-9.39a.5.5,0,0,1-.5-.5v-5.77a.5.5,0,0,1,.5-.5H260a.5.5,0,0,1,.5.5v5.77A.5.5,0,0,1,260,161.32Zm-8.89-1h8.39v-4.77h-8.39Z" style="fill:#263238"></path><rect x="250.1" y="155.05" width="9.39" height="5.77" style="fill:#fff"></rect><path d="M259.5,161.32h-9.4a.51.51,0,0,1-.5-.5v-5.77a.5.5,0,0,1,.5-.5h9.4a.5.5,0,0,1,.5.5v5.77A.51.51,0,0,1,259.5,161.32Zm-8.9-1H259v-4.77h-8.4Z" style="fill:#263238"></path><rect x="271.27" y="155.05" width="9.39" height="5.77" style="fill:#fff"></rect><path d="M280.66,161.32h-9.39a.5.5,0,0,1-.5-.5v-5.77a.5.5,0,0,1,.5-.5h9.39a.5.5,0,0,1,.5.5v5.77A.5.5,0,0,1,280.66,161.32Zm-8.89-1h8.39v-4.77h-8.39Z" style="fill:#263238"></path><rect x="270.73" y="155.05" width="9.39" height="5.77" style="fill:#fff"></rect><path d="M280.13,161.32h-9.4a.51.51,0,0,1-.5-.5v-5.77a.5.5,0,0,1,.5-.5h9.4a.5.5,0,0,1,.5.5v5.77A.51.51,0,0,1,280.13,161.32Zm-8.9-1h8.4v-4.77h-8.4Z" style="fill:#263238"></path><rect x="291.9" y="155.05" width="9.39" height="5.77" style="fill:#fff"></rect><path d="M301.29,161.32H291.9a.5.5,0,0,1-.5-.5v-5.77a.5.5,0,0,1,.5-.5h9.39a.5.5,0,0,1,.5.5v5.77A.5.5,0,0,1,301.29,161.32Zm-8.89-1h8.39v-4.77H292.4Z" style="fill:#263238"></path><rect x="291.36" y="155.05" width="9.39" height="5.77" style="fill:#fff"></rect><path d="M300.76,161.32h-9.4a.51.51,0,0,1-.5-.5v-5.77a.5.5,0,0,1,.5-.5h9.4a.5.5,0,0,1,.5.5v5.77A.5.5,0,0,1,300.76,161.32Zm-8.9-1h8.4v-4.77h-8.4Z" style="fill:#263238"></path><rect x="202.39" y="160.75" width="8.37" height="4.85" style="fill:#92E3A9"></rect><path d="M210.76,166.1h-8.37a.51.51,0,0,1-.5-.5v-4.85a.51.51,0,0,1,.5-.5h8.37a.5.5,0,0,1,.5.5v4.85A.5.5,0,0,1,210.76,166.1Zm-7.87-1h7.37v-3.85h-7.37Z" style="fill:#263238"></path><rect x="205.03" y="160.75" width="8.37" height="4.85" style="fill:#92E3A9"></rect><path d="M213.4,166.1H205a.5.5,0,0,1-.5-.5v-4.85a.5.5,0,0,1,.5-.5h8.37a.51.51,0,0,1,.5.5v4.85A.51.51,0,0,1,213.4,166.1Zm-7.87-1h7.37v-3.85h-7.37Z" style="fill:#263238"></path><rect x="200.36" y="163.48" width="20.63" height="24.18" style="fill:#263238"></rect><path d="M221,188.16H200.36a.5.5,0,0,1-.5-.5V163.48a.5.5,0,0,1,.5-.5H221a.5.5,0,0,1,.5.5v24.18A.5.5,0,0,1,221,188.16Zm-20.13-1h19.63V164H200.86Z" style="fill:#263238"></path><rect x="215.67" y="163.48" width="20.63" height="24.18" style="fill:#92E3A9"></rect><path d="M236.3,188.16H215.67a.5.5,0,0,1-.5-.5V163.48a.5.5,0,0,1,.5-.5H236.3a.5.5,0,0,1,.5.5v24.18A.51.51,0,0,1,236.3,188.16Zm-20.13-1H235.8V164H216.17Z" style="fill:#263238"></path><rect x="223.21" y="178.78" width="5.55" height="8.87" style="fill:#263238"></rect><path d="M228.75,188.16h-5.54a.5.5,0,0,1-.5-.5v-8.88a.5.5,0,0,1,.5-.5h5.54a.5.5,0,0,1,.5.5v8.88A.5.5,0,0,1,228.75,188.16Zm-5-1h4.54v-7.88h-4.54Z" style="fill:#263238"></path><rect x="210.24" y="166.36" width="3.43" height="16.42" style="fill:#92E3A9"></rect><path d="M213.67,183.28h-3.43a.5.5,0,0,1-.5-.5V166.36a.5.5,0,0,1,.5-.5h3.43a.51.51,0,0,1,.5.5v16.42A.51.51,0,0,1,213.67,183.28Zm-2.93-1h2.43V166.86h-2.43Z" style="fill:#263238"></path><rect x="205.85" y="166.36" width="3.43" height="16.42" style="fill:#92E3A9"></rect><path d="M209.28,183.28h-3.43a.51.51,0,0,1-.5-.5V166.36a.51.51,0,0,1,.5-.5h3.43a.5.5,0,0,1,.5.5v16.42A.5.5,0,0,1,209.28,183.28Zm-2.93-1h2.43V166.86h-2.43Z" style="fill:#263238"></path><rect x="201.47" y="166.36" width="3.43" height="16.42" style="fill:#92E3A9"></rect><path d="M204.9,183.28h-3.43a.5.5,0,0,1-.5-.5V166.36a.5.5,0,0,1,.5-.5h3.43a.5.5,0,0,1,.5.5v16.42A.5.5,0,0,1,204.9,183.28Zm-2.93-1h2.43V166.86H202Z" style="fill:#263238"></path><rect x="243.06" y="154.59" width="4.94" height="32.92" style="fill:#fff"></rect><path d="M248,188h-4.93a.5.5,0,0,1-.5-.5V154.59a.5.5,0,0,1,.5-.5H248a.5.5,0,0,1,.5.5v32.92A.5.5,0,0,1,248,188Zm-4.43-1h3.93V155.09h-3.93Z" style="fill:#263238"></path><rect x="243.84" y="154.59" width="4.94" height="32.92" style="fill:#92E3A9"></rect><path d="M249.28,188h-5.94V154.09h5.94Zm-4.94-1h3.94V155.09h-3.94Z" style="fill:#263238"></path><rect x="263.2" y="154.59" width="4.94" height="32.92" style="fill:#fff"></rect><path d="M268.14,188H263.2a.51.51,0,0,1-.5-.5V154.59a.51.51,0,0,1,.5-.5h4.94a.5.5,0,0,1,.5.5v32.92A.5.5,0,0,1,268.14,188Zm-4.44-1h3.94V155.09H263.7Z" style="fill:#263238"></path><rect x="263.98" y="154.59" width="4.94" height="32.92" style="fill:#92E3A9"></rect><path d="M269.41,188h-5.93V154.09h5.93Zm-4.93-1h3.93V155.09h-3.93Z" style="fill:#263238"></path><rect x="283.82" y="154.59" width="4.94" height="32.92" style="fill:#fff"></rect><path d="M288.76,188h-4.94a.51.51,0,0,1-.5-.5V154.59a.51.51,0,0,1,.5-.5h4.94a.5.5,0,0,1,.5.5v32.92A.5.5,0,0,1,288.76,188Zm-4.44-1h3.94V155.09h-3.94Z" style="fill:#263238"></path><rect x="284.6" y="154.59" width="4.94" height="32.92" style="fill:#92E3A9"></rect><path d="M290,188H284.1V154.09H290Zm-4.94-1H289V155.09H285.1Z" style="fill:#263238"></path><rect x="304.47" y="154.59" width="4.94" height="32.92" style="fill:#fff"></rect><path d="M309.41,188h-4.94a.5.5,0,0,1-.5-.5V154.59a.5.5,0,0,1,.5-.5h4.94a.51.51,0,0,1,.5.5v32.92A.51.51,0,0,1,309.41,188ZM305,187h3.94V155.09H305Z" style="fill:#263238"></path><rect x="305.25" y="154.59" width="4.94" height="32.92" style="fill:#92E3A9"></rect><path d="M310.68,188h-5.93V154.09h5.93Zm-4.93-1h3.93V155.09h-3.93Z" style="fill:#263238"></path></g><g id="freepik--Shadow--inject-52"><ellipse cx="260.67" cy="454.59" rx="61.38" ry="5.56" style="fill:#263238"></ellipse></g><g id="freepik--Earth--inject-52"><circle cx="258.12" cy="298.27" r="125.54" transform="translate(-135.31 269.88) rotate(-45)" style="fill:#92E3A9"></circle><polygon points="237.47 243.76 250.42 245.56 255.07 249.79 260.8 250.28 262.96 255.55 261.88 259.28 258.13 261.31 248.54 260.39 248.21 259.24 252.48 255.82 249.01 250.31 240.46 249.71 235.69 246.14 237.47 243.76" style="fill:#fff"></polygon><path d="M348.17,354.8l-10.24-1L325.61,353l-8.87,2.59-8.79.71L299.38,361l-5.06,1.8-3.15.92-5,5.18-5.05,4-9.14-2.6-.34-8.59-5.45-.58-5.72,1.67-1.61-2.32-.93-5.32-2.84-2.27-3.84,1.74-.3,3.2-4.78,1.7-5.8-3.89-3.72-6.36L238.6,340l8.46-1.86,2.87,1.34,3.43-1,3.54-3.83,4.05.06,7.74,7.36,1.92-.87-2.49-6.41-2.72-2.93-1-5.6,9.24-7.67-1.66-11,3.49-5.05,1.79-7.67,2.69-1.41,5.33-6.21-.39-2.37-4.49,1.62-1.53-2-3.14.92-4.53,2.56,1.2-4.38,9.17-5.79,1.54-3.24,5.84,5.12,3.33,1.82,3.67-2.32-2.8-3.21-7.26-2.54-9.13-5.71-8.57-2.77-7.19.86-4.44-2.43-4.91.2-.24,1.31,1.86,8.46,2,2.52.1,9.91-7.06-2.91-.31-4.25-6.84-1.1-3.5-2.4L237,267.5l6.54-8.43-1.43-7-3.07,1.2-2.75-2-2.11-4-2.09.29.2,4.91-3,1.5-4.36-9.59-2.71-.77-4.5-.54-3.91,3.63,7.31,3.76,2.57,4.52-12.56-4.71-9.4-5.63L198.88,237l-8.11-.12-4.63,5.39a46.18,46.18,0,0,1-3.62,3.55c-1.26,1-6.53,3.15-6.53,3.15l.28,5.19-6.49,2.21,1.49,3L182.35,258l7.19,4.42,2.93,10-.56,9.78,3.33,9.27-3.9,16.36,4.38,21.37,6.09,11.26,6.39,8.06,4.46-.68-2.77-4.15-3.29-2.77-3.27-5.87,2.41-1.33,7,9.13,5.54,8.31,2.17,7.44,7.36,5,11.81,4.3,16-.34,5.83,2.95,4.77,3.57,6.07,1.64,6.79-.12,6.21-2.13s.55,2.95,1,4.38-2.17,7.46-2.17,7.46L282.67,392l4.13,5.62,7,.73,11.54,6.56,4.51.55,1.25,4.29,1.09,1.85A125.18,125.18,0,0,0,364,365.78l-.46-2.11,3.62-16.27-4.47-1.49Z" style="fill:#fff"></path><path d="M344.88,233.15l-4.74-4.52-5.84-5.12-3.65-8.24,5.4-.65-.55-2.94-3.81.8,2.73-2.35,2.85-3-.84-2.86-4.77-3.57-2.53-5.94a125.62,125.62,0,0,0-151.43,7.09l8,2.74-2.5,6.32-5.1,2.73,1.69,7.89-2,1.53-1.94,4,1.8,5.07,5-.85-.58,5.44,4.87-1.42,5.19-13-.48-4.82,7.84-2.91,1-4,8-3.28-.56-5.12,5.92-2s3.62-3.54,4.48-3.79a36.43,36.43,0,0,1,5.28,0l5.29,2.17,6-1.75,4.23-4.65,6.74-1.35a7.35,7.35,0,0,0,3.48.22c1.43-.42,5.13-3.67,5.13-3.67l9.8,2.72,4.19,1.57,1.25,4.29,4.46-.69.68-3,4.21.63.39,2.37-7.91,4.8,6.7,4.87,12,2.71,6,4.46,6.46-1.27.59-3.27,2.12-1.24-9.11-3.55-4.74.77,3.38-2.23L290,197.35l4.78-1.71,7.29,1.59,3.44,6.45,4.23,2.8,5,7.54,7.63,2.73,2.76,9.44,7.83,2.36.63,3.23.23,4,3.23,4.65,1.32,2.4,5.11-.56.87-5.53Z" style="fill:#fff"></path><path d="M340.17,203.25l.48,1.64-.09,5,2,3.75,3.48.22,1.59,5.44-3.85-.43,3.65,15.69-1.59,7.3,4.63,7.34,4.72,2.34L359.74,267,367,277.91l6.68,8,7.08-.21.61-6.39.72-1A127.76,127.76,0,0,0,378.61,263,125,125,0,0,0,340.17,203.25Z" style="fill:#fff"></path><polygon points="265.74 347.86 264.93 349.34 274.26 349.4 278.87 352.4 284.47 351.39 285.55 347.66 278.64 348.44 265.74 347.86" style="fill:#fff"></polygon><polygon points="292.78 345.85 287.28 349.32 288.8 351.36 296.24 349.19 297 346.48 294.51 347.52 292.78 345.85" style="fill:#fff"></polygon><path d="M351.52,372.09A125.54,125.54,0,0,1,212.19,181.44a125.53,125.53,0,1,0,150,187C358.74,369.79,355.17,371,351.52,372.09Z" style="opacity:0.19"></path><path d="M258.08,417.62a118.17,118.17,0,0,1-17.53-1.3.5.5,0,0,1,.14-1,117.31,117.31,0,0,0,20.51,1.25.51.51,0,0,1,.51.49.5.5,0,0,1-.49.51C260.18,417.61,259.13,417.62,258.08,417.62Z" style="fill:#263238"></path><path d="M235.55,415.45h-.1c-3.56-.7-7.13-1.56-10.62-2.58a.5.5,0,0,1-.34-.62.51.51,0,0,1,.62-.34c3.46,1,7,1.87,10.53,2.55a.51.51,0,0,1,.4.59A.5.5,0,0,1,235.55,415.45Z" style="fill:#263238"></path><path d="M220.57,411.51a.44.44,0,0,1-.16,0,119.41,119.41,0,0,1-79-138.24.51.51,0,0,1,.6-.38.49.49,0,0,1,.38.59,118.4,118.4,0,0,0,78.33,137.08.5.5,0,0,1-.16,1Z" style="fill:#263238"></path><path d="M146,259.46a.47.47,0,0,1-.17,0,.51.51,0,0,1-.31-.64,120.31,120.31,0,0,1,9.67-20.86.5.5,0,0,1,.68-.18.51.51,0,0,1,.18.69,119,119,0,0,0-9.58,20.68A.52.52,0,0,1,146,259.46Z" style="fill:#263238"></path><path d="M258.17,424.32a126.08,126.08,0,1,1,35.32-5.08A126.24,126.24,0,0,1,258.17,424.32Zm.12-251.14a125.07,125.07,0,1,0,119.84,90,125.23,125.23,0,0,0-119.84-90Z" style="fill:#263238"></path><path d="M239.2,334.28c.08,6-3.38,11-7.73,11s-7.94-4.8-8-10.84,3.39-11,7.74-11S239.13,328.23,239.2,334.28Z" style="fill:#263238"></path><path d="M236,329.25c.31,2.33-.57,4.38-2,4.57s-2.79-1.55-3.11-3.89.57-4.38,2-4.57S235.72,326.91,236,329.25Z" style="fill:#fff"></path><path d="M293.27,333.06c.08,6.05-3.38,11-7.73,11.05s-7.94-4.8-8-10.84,3.38-11,7.73-11S293.19,327,293.27,333.06Z" style="fill:#263238"></path><path d="M289.8,327.42c.31,2.34-.57,4.38-2,4.57s-2.79-1.55-3.11-3.88.57-4.38,2-4.57S289.48,325.09,289.8,327.42Z" style="fill:#fff"></path><path d="M289.74,385.81a1.5,1.5,0,0,1-1.47-1.23c-2.56-13.79-14.33-23.93-28-24.1h-.37A29,29,0,0,0,232,382.35a1.5,1.5,0,0,1-2.9-.77,32,32,0,0,1,30.77-24.11h.41c15.08.19,28.08,11.36,30.9,26.55a1.5,1.5,0,0,1-1.2,1.75Z" style="fill:#263238"></path><path d="M212.43,325.14a4,4,0,0,1-.53-8h0c.22,0,21.52-3,34.29-12.65a4,4,0,1,1,4.83,6.38c-14.47,10.95-37.1,14.07-38.06,14.2Z" style="fill:#263238"></path><path d="M303.8,330a3.82,3.82,0,0,1-1.15-.17c-19.09-5.73-37.37-19.06-38.14-19.62a4,4,0,0,1,4.74-6.45c.17.13,18,13.09,35.7,18.41A4,4,0,0,1,303.8,330Z" style="fill:#263238"></path></g><g id="freepik--Drops--inject-52"><path d="M344.6,297.17a9,9,0,1,1-18.07,0c0-5.2,9-20.78,9-20.78S344.6,292,344.6,297.17Z" style="fill:#fff"></path><path d="M335.56,307.1a9.75,9.75,0,0,1-9.53-9.93c0-5.28,8.73-20.39,9.1-21l.43-.75.44.75c.37.64,9.1,15.75,9.1,21A9.76,9.76,0,0,1,335.56,307.1Zm0-29.7c-1.79,3.17-8.53,15.41-8.53,19.77a8.54,8.54,0,1,0,17.07,0C344.1,292.81,337.36,280.57,335.56,277.4Z" style="fill:#263238"></path><path d="M358.48,317a6.14,6.14,0,1,1-12.27,0c0-3.53,6.13-14.11,6.13-14.11S358.48,313.45,358.48,317Z" style="fill:#fff"></path><path d="M352.34,323.88a6.78,6.78,0,0,1-6.63-6.9c0-3.63,6-13.93,6.2-14.36l.43-.75.44.75c.25.43,6.2,10.73,6.2,14.36A6.79,6.79,0,0,1,352.34,323.88Zm0-20c-1.38,2.47-5.63,10.27-5.63,13.1A5.64,5.64,0,1,0,358,317C358,314.15,353.73,306.35,352.34,303.88Z" style="fill:#263238"></path><path d="M196.34,358.93a6.14,6.14,0,1,1-12.27,0c0-3.53,6.13-14.11,6.13-14.11S196.34,355.4,196.34,358.93Z" style="fill:#fff"></path><path d="M190.2,365.83a6.77,6.77,0,0,1-6.63-6.9c0-3.62,6-13.92,6.2-14.36l.43-.74.43.74c.26.44,6.21,10.74,6.21,14.36A6.78,6.78,0,0,1,190.2,365.83Zm0-20c-1.39,2.48-5.63,10.28-5.63,13.1a5.64,5.64,0,1,0,11.27,0C195.84,356.11,191.59,348.31,190.2,345.83Z" style="fill:#263238"></path><path d="M293.42,246.55a6.14,6.14,0,1,1-12.27,0c0-3.54,6.13-14.11,6.13-14.11S293.42,243,293.42,246.55Z" style="fill:#fff"></path><path d="M287.28,253.45a6.78,6.78,0,0,1-6.63-6.9c0-3.63,6-13.93,6.2-14.37l.43-.74.44.74c.25.44,6.2,10.74,6.2,14.37A6.79,6.79,0,0,1,287.28,253.45Zm0-20c-1.38,2.47-5.63,10.27-5.63,13.1a5.64,5.64,0,1,0,11.27,0C292.92,243.72,288.67,235.92,287.28,233.45Z" style="fill:#263238"></path><path d="M223.62,233.43a6.14,6.14,0,1,1-12.27,0c0-3.54,6.14-14.11,6.14-14.11S223.62,229.89,223.62,233.43Z" style="fill:#fff"></path><path d="M217.49,240.33a6.79,6.79,0,0,1-6.64-6.9c0-3.63,6-13.93,6.2-14.37l.44-.74.43.74c.25.44,6.2,10.74,6.2,14.37A6.78,6.78,0,0,1,217.49,240.33Zm0-20c-1.39,2.47-5.64,10.27-5.64,13.1a5.64,5.64,0,1,0,11.27,0C223.12,230.6,218.87,222.8,217.49,220.33Z" style="fill:#263238"></path><path d="M270.06,435.93a6.14,6.14,0,1,1-12.27,0c0-3.53,6.14-14.11,6.14-14.11S270.06,432.4,270.06,435.93Z" style="fill:#fff"></path><path d="M263.93,442.83a6.78,6.78,0,0,1-6.64-6.9c0-3.62,5.95-13.92,6.2-14.36l.44-.74.43.74c.25.44,6.2,10.74,6.2,14.36A6.78,6.78,0,0,1,263.93,442.83Zm0-20c-1.39,2.48-5.64,10.28-5.64,13.1a5.64,5.64,0,1,0,11.27,0C269.56,433.11,265.31,425.31,263.93,422.83Z" style="fill:#263238"></path><path d="M198.87,293.49a6.14,6.14,0,1,1-12.27,0c0-3.54,6.13-14.12,6.13-14.12S198.87,290,198.87,293.49Z" style="fill:#fff"></path><path d="M192.73,300.38a6.77,6.77,0,0,1-6.63-6.89c0-3.63,6-13.93,6.2-14.37l.43-.74.43.74c.26.44,6.21,10.74,6.21,14.37A6.78,6.78,0,0,1,192.73,300.38Zm0-20c-1.39,2.47-5.63,10.27-5.63,13.1a5.64,5.64,0,1,0,11.27,0C198.37,290.66,194.12,282.86,192.73,280.39Z" style="fill:#263238"></path></g><g id="freepik--Thermometer--inject-52"><path d="M119.58,355.19V250.35a9.81,9.81,0,0,0-9.8-9.81h0a9.81,9.81,0,0,0-9.8,9.81V354.59a19.54,19.54,0,1,0,19.6.6Z" style="fill:#fff"></path><path d="M109.31,391.78a23.26,23.26,0,0,1-2.34-.13,20,20,0,0,1-7.49-37.36V250.35a10.3,10.3,0,1,1,20.6,0V354.92a20,20,0,0,1-10.77,36.86ZM109.78,241a9.32,9.32,0,0,0-9.3,9.31V354.88l-.26.15a19,19,0,1,0,19.1.59l-.24-.15V250.35A9.32,9.32,0,0,0,109.78,241Z" style="fill:#263238"></path><path d="M113.33,357.19V273.08h-7.1v83.85a15.17,15.17,0,1,0,7.1.26Z" style="fill:#92E3A9"></path><path d="M109.28,387.38a15.63,15.63,0,0,1-3.55-30.85V272.58h8.1v84.24a15.62,15.62,0,0,1-4.55,30.56Zm-2.55-113.8v83.76l-.4.08a14.66,14.66,0,1,0,6.87.25l-.37-.1v-84Z" style="fill:#263238"></path><circle cx="103.16" cy="366.01" r="4.21" style="fill:#fff"></circle><path d="M108.13,262h-5.36a.51.51,0,0,1-.5-.5.5.5,0,0,1,.5-.5h5.36a.5.5,0,0,1,.5.5A.5.5,0,0,1,108.13,262Z" style="fill:#263238"></path><path d="M108.13,270h-5.36a.5.5,0,0,1-.5-.5.51.51,0,0,1,.5-.5h5.36a.5.5,0,0,1,.5.5A.5.5,0,0,1,108.13,270Z" style="fill:#263238"></path><path d="M108.13,278.08h-5.36a.5.5,0,0,1-.5-.5.51.51,0,0,1,.5-.5h5.36a.5.5,0,0,1,.5.5A.5.5,0,0,1,108.13,278.08Z" style="fill:#263238"></path><path d="M108.13,286.12h-5.36a.5.5,0,0,1-.5-.5.51.51,0,0,1,.5-.5h5.36a.5.5,0,0,1,.5.5A.5.5,0,0,1,108.13,286.12Z" style="fill:#263238"></path><path d="M108.13,294.16h-5.36a.5.5,0,0,1-.5-.5.51.51,0,0,1,.5-.5h5.36a.5.5,0,0,1,.5.5A.5.5,0,0,1,108.13,294.16Z" style="fill:#263238"></path><path d="M108.13,302.2h-5.36a.5.5,0,1,1,0-1h5.36a.5.5,0,0,1,0,1Z" style="fill:#263238"></path><path d="M108.13,310.24h-5.36a.5.5,0,1,1,0-1h5.36a.5.5,0,0,1,0,1Z" style="fill:#263238"></path><path d="M108.13,318.28h-5.36a.51.51,0,0,1-.5-.5.5.5,0,0,1,.5-.5h5.36a.5.5,0,0,1,.5.5A.5.5,0,0,1,108.13,318.28Z" style="fill:#263238"></path><path d="M108.13,326.32h-5.36a.51.51,0,0,1-.5-.5.5.5,0,0,1,.5-.5h5.36a.5.5,0,0,1,.5.5A.5.5,0,0,1,108.13,326.32Z" style="fill:#263238"></path><path d="M108.13,334.36h-5.36a.51.51,0,0,1-.5-.5.5.5,0,0,1,.5-.5h5.36a.5.5,0,0,1,.5.5A.5.5,0,0,1,108.13,334.36Z" style="fill:#263238"></path><path d="M108.13,342.39h-5.36a.5.5,0,0,1-.5-.5.51.51,0,0,1,.5-.5h5.36a.5.5,0,0,1,.5.5A.5.5,0,0,1,108.13,342.39Z" style="fill:#263238"></path><path d="M108.13,350.43h-5.36a.5.5,0,0,1-.5-.5.51.51,0,0,1,.5-.5h5.36a.5.5,0,0,1,.5.5A.5.5,0,0,1,108.13,350.43Z" style="fill:#263238"></path></g><g id="freepik--Arrow--inject-52"><polygon points="96.37 290.95 84.8 270.92 73.24 290.95 81.55 290.95 81.55 354.95 88.06 354.95 88.06 290.95 96.37 290.95" style="fill:#263238"></polygon></g></svg>