<svg xmlns="http://www.w3.org/2000/svg" viewBox="0 0 500 500"><g id="freepik--Shadow--inject-20"><ellipse id="freepik--path--inject-20" cx="250" cy="416.24" rx="193.89" ry="11.32" style="fill:#f5f5f5"></ellipse></g><g id="freepik--Factors--inject-20"><path d="M208.7,159.06a33.88,33.88,0,1,1,46.77-10.39A33.93,33.93,0,0,1,208.7,159.06Z" style="fill:#407BFF"></path><path d="M231.91,170.54a.49.49,0,0,1-.49-.44.5.5,0,0,1,.43-.56c.65-.08,1.3-.18,2-.29a.5.5,0,1,1,.18,1c-.67.12-1.33.22-2,.31ZM217,169.63l-.12,0a41,41,0,0,1-4.82-1.55.51.51,0,0,1-.28-.65.49.49,0,0,1,.65-.28,41.34,41.34,0,0,0,4.69,1.52.5.5,0,0,1-.12,1Zm26.38-2.35a.49.49,0,0,1-.45-.3.5.5,0,0,1,.25-.66,39.11,39.11,0,0,0,12-8.49.5.5,0,1,1,.72.69,39.92,39.92,0,0,1-12.33,8.71A.54.54,0,0,1,243.41,167.28Zm-33.88-.4a.44.44,0,0,1-.22,0,42.48,42.48,0,0,1-4.11-2.29,40.32,40.32,0,0,1-8-6.7.5.5,0,1,1,.73-.67,39.56,39.56,0,0,0,7.82,6.52,37.56,37.56,0,0,0,4,2.24.5.5,0,0,1,.23.67A.48.48,0,0,1,209.53,166.88Zm48.06-10.44a.49.49,0,0,1-.32-.12.5.5,0,0,1-.07-.7,40.69,40.69,0,0,0,2.91-4l.32-.51a.49.49,0,0,1,.68-.17.51.51,0,0,1,.17.69l-.33.52a41.64,41.64,0,0,1-3,4.1A.51.51,0,0,1,257.59,156.44Zm-65.82-6.56a.49.49,0,0,1-.44-.26c-.32-.6-.63-1.2-.91-1.81a.5.5,0,0,1,.23-.67.51.51,0,0,1,.67.24c.28.6.58,1.18.89,1.76a.5.5,0,0,1-.2.68A.53.53,0,0,1,191.77,149.88ZM266.16,138h-.08a.51.51,0,0,1-.41-.58c.12-.65.21-1.3.3-2a.5.5,0,0,1,1,.12c-.08.67-.19,1.34-.3,2A.51.51,0,0,1,266.16,138Zm-79.06-4.28a.5.5,0,0,1-.5-.47c-.06-.91-.09-1.84-.09-2.76,0-.76,0-1.53.06-2.3a.52.52,0,0,1,.53-.47.5.5,0,0,1,.47.53c0,.75-.06,1.49-.06,2.24s0,1.8.09,2.69a.5.5,0,0,1-.47.54ZM266.45,126a.5.5,0,0,1-.49-.44,39.55,39.55,0,0,0-4.53-14,.49.49,0,0,1,.2-.68.49.49,0,0,1,.67.2A40.24,40.24,0,0,1,267,125.44a.49.49,0,0,1-.43.55Zm-79.09-.31h-.07a.5.5,0,0,1-.43-.56,40.12,40.12,0,0,1,4.77-14.32.5.5,0,0,1,.68-.19.5.5,0,0,1,.2.68,39,39,0,0,0-4.66,14A.5.5,0,0,1,187.36,125.69Zm73-16.46a.51.51,0,0,1-.42-.22,39.41,39.41,0,0,0-2.94-4,.51.51,0,0,1,0-.71.51.51,0,0,1,.71.06,39.92,39.92,0,0,1,3,4.06.5.5,0,0,1-.15.69A.45.45,0,0,1,260.33,109.23ZM198,103.51a.52.52,0,0,1-.35-.14.5.5,0,0,1,0-.71c.47-.49.95-1,1.43-1.43a.5.5,0,1,1,.69.72c-.47.45-.94.92-1.39,1.4A.52.52,0,0,1,198,103.51Zm47.77-7.66a.46.46,0,0,1-.23-.06c-.58-.32-1.17-.62-1.76-.9a.49.49,0,0,1-.24-.66.5.5,0,0,1,.67-.24c.6.29,1.21.59,1.8.92a.48.48,0,0,1,.2.67A.5.5,0,0,1,245.75,95.85ZM211.92,94a.48.48,0,0,1-.46-.31.51.51,0,0,1,.27-.65,40.93,40.93,0,0,1,4.8-1.6.51.51,0,0,1,.62.36.5.5,0,0,1-.36.61A38.33,38.33,0,0,0,212.11,94,.63.63,0,0,1,211.92,94Zm22.58-2.19h-.1a39.6,39.6,0,0,0-14.72,0,.5.5,0,0,1-.58-.4.51.51,0,0,1,.4-.59,40.72,40.72,0,0,1,15.09,0,.51.51,0,0,1,.4.59A.5.5,0,0,1,234.5,91.82Z" style="fill:#407BFF"></path><path d="M208.7,159.06a33.88,33.88,0,1,1,46.77-10.39A33.93,33.93,0,0,1,208.7,159.06Z" style="fill:#fff;opacity:0.8;isolation:isolate"></path><path d="M341.5,123a.5.5,0,0,1,0-1c.64,0,1.3-.07,1.95-.15a.49.49,0,0,1,.55.44.49.49,0,0,1-.43.55c-.68.08-1.37.14-2,.16Zm11.34-3.47a.5.5,0,0,1-.26-.92,22.44,22.44,0,0,0,9.07-11.19.5.5,0,0,1,.94.34,23.47,23.47,0,0,1-9.48,11.7A.52.52,0,0,1,352.84,119.55Zm-25.42-.83a.45.45,0,0,1-.29-.1,22.7,22.7,0,0,1-3.78-3.42.48.48,0,0,1,0-.7.5.5,0,0,1,.71,0,22.91,22.91,0,0,0,3.61,3.28.5.5,0,0,1-.29.9ZM321.88,113a.48.48,0,0,1-.41-.22,23.12,23.12,0,0,1-4-13c0-.5,0-1,.05-1.51a.51.51,0,0,1,.53-.47.5.5,0,0,1,.47.53c0,.48-.05,1-.05,1.45a22.12,22.12,0,0,0,3.81,12.45.51.51,0,0,1-.14.7A.46.46,0,0,1,321.88,113ZM363,105.23h-.11a.5.5,0,0,1-.38-.6,22.45,22.45,0,0,0,.53-4.85.51.51,0,0,1,.5-.5.5.5,0,0,1,.5.5,23.23,23.23,0,0,1-.55,5.07A.5.5,0,0,1,363,105.23Zm-.85-12.82a.48.48,0,0,1-.47-.33c-.23-.61-.48-1.21-.76-1.8a.49.49,0,0,1,.24-.66.5.5,0,0,1,.67.23c.29.62.55,1.25.79,1.89a.5.5,0,0,1-.3.64Zm-41.29-3.14a.53.53,0,0,1-.24-.06.49.49,0,0,1-.19-.68c.32-.59.68-1.18,1.06-1.74a.51.51,0,0,1,.7-.14.5.5,0,0,1,.13.7c-.36.54-.7,1.1-1,1.66A.49.49,0,0,1,320.82,89.27Zm34.43-6.53a.49.49,0,0,1-.32-.12,22.08,22.08,0,0,0-13.47-5.09A.49.49,0,0,1,341,77a.48.48,0,0,1,.51-.49,23,23,0,0,1,14.08,5.32.51.51,0,0,1,.06.71A.49.49,0,0,1,355.25,82.74ZM333.6,78.67a.5.5,0,0,1-.16-1,23.73,23.73,0,0,1,5-1.06.5.5,0,1,1,.1,1,22.14,22.14,0,0,0-4.77,1A.45.45,0,0,1,333.6,78.67Z" style="fill:#407BFF"></path><circle cx="340.75" cy="99.77" r="18.45" transform="translate(29.25 270.17) rotate(-45)" style="fill:#407BFF"></circle><circle cx="340.75" cy="99.77" r="18.45" transform="translate(29.25 270.17) rotate(-45)" style="fill:#fff;opacity:0.8;isolation:isolate"></circle><path d="M340.75,89.85A6.63,6.63,0,0,1,344,102.27a1,1,0,0,0-.5.79H338a1,1,0,0,0-.51-.79,6.64,6.64,0,0,1,3.26-12.42m0-1A7.64,7.64,0,0,0,337,103.14l.06.92h7.37l.06-.92a7.63,7.63,0,0,0-3.74-14.29Z" style="fill:#407BFF"></path><rect x="336.8" y="104.59" width="7.89" height="1.16" rx="0.48" style="fill:#407BFF"></rect><rect x="337.03" y="106.18" width="7.43" height="1.16" rx="0.48" style="fill:#407BFF"></rect><rect x="337.32" y="107.78" width="6.85" height="1.16" rx="0.48" style="fill:#407BFF"></rect><path d="M338.44,109.45a2.75,2.75,0,0,0,4.61,0Z" style="fill:#407BFF"></path><path d="M342,104.07h0a.23.23,0,0,1-.23-.26c0-.16.24-3.66,1.18-5.34h-.52a.25.25,0,0,1-.23-.16l-.14-.33-.45,1.13a.25.25,0,0,1-.23.16h0a.26.26,0,0,1-.23-.16l-.44-1.1-.43,1.1a.27.27,0,0,1-.47,0L339.4,98l-.13.31a.25.25,0,0,1-.23.16h-.51c.93,1.68,1.17,5.18,1.18,5.34a.24.24,0,0,1-.24.26.23.23,0,0,1-.26-.23s-.28-4.15-1.34-5.47a.23.23,0,0,1,0-.26.24.24,0,0,1,.22-.14h.81l.3-.74a.24.24,0,0,1,.23-.15h0a.25.25,0,0,1,.23.15l.44,1.11.43-1.11a.25.25,0,0,1,.23-.15h0a.26.26,0,0,1,.24.15l.43,1.11.44-1.11a.23.23,0,0,1,.22-.15.24.24,0,0,1,.24.15l.32.74h.81a.25.25,0,0,1,.2.4c-1.07,1.32-1.34,5.43-1.34,5.47A.26.26,0,0,1,342,104.07Z" style="fill:#407BFF"></path><path d="M127,250.86h0a27.54,27.54,0,0,1-5-.83.52.52,0,0,1-.35-.62.5.5,0,0,1,.61-.35,25.5,25.5,0,0,0,4.83.8.51.51,0,0,1,.47.54A.5.5,0,0,1,127,250.86Zm-7.78-1.75-.18,0a27.15,27.15,0,0,1-12-9.18.51.51,0,0,1,.11-.7.5.5,0,0,1,.7.11,26,26,0,0,0,11.52,8.83.5.5,0,0,1-.18,1Zm22.25-1.36a.5.5,0,0,1-.44-.27.49.49,0,0,1,.2-.67c.58-.31,1.15-.65,1.69-1a.5.5,0,0,1,.54.84c-.57.37-1.16.71-1.76,1A.46.46,0,0,1,141.45,247.75Zm8.93-7.85a.46.46,0,0,1-.29-.1.5.5,0,0,1-.12-.7,26,26,0,0,0,4.88-13.67.49.49,0,0,1,.53-.47.5.5,0,0,1,.47.53,27,27,0,0,1-5.06,14.2A.52.52,0,0,1,150.38,239.9Zm-47.2-8.77a.5.5,0,0,1-.49-.37l-.1-.4c-.13-.53-.24-1.06-.34-1.59a.5.5,0,1,1,1-.18q.15.76.33,1.53l.1.39a.5.5,0,0,1-.35.61ZM155.36,223a.5.5,0,0,1-.5-.47,26.55,26.55,0,0,0-.73-4.85,25.91,25.91,0,0,0-3.41-7.91.5.5,0,0,1,.84-.54,27.16,27.16,0,0,1,4.29,13.24.5.5,0,0,1-.47.53Zm-51.13-8.5a.41.41,0,0,1-.19,0,.5.5,0,0,1-.28-.65,27.15,27.15,0,0,1,2.34-4.51.5.5,0,1,1,.84.54,26,26,0,0,0-2.25,4.35A.51.51,0,0,1,104.23,214.46Zm4-6.86a.56.56,0,0,1-.32-.11.52.52,0,0,1-.07-.71,27,27,0,0,1,12.41-8.56.5.5,0,0,1,.63.32.5.5,0,0,1-.31.63,25.86,25.86,0,0,0-12,8.25A.51.51,0,0,1,108.28,207.6Zm41.09-.06a.48.48,0,0,1-.38-.18,27,27,0,0,0-3.45-3.48.49.49,0,0,1-.07-.7.49.49,0,0,1,.7-.06,26.55,26.55,0,0,1,3.59,3.6.52.52,0,0,1-.07.71A.54.54,0,0,1,149.37,207.54Zm-17.07-9.49h-.06c-.65-.08-1.31-.15-2-.18a.51.51,0,0,1-.47-.53.5.5,0,0,1,.53-.47c.67,0,1.35.1,2,.19a.5.5,0,0,1-.07,1Z" style="fill:#407BFF"></path><circle cx="128.85" cy="223.88" r="21.52" style="fill:#407BFF"></circle><circle cx="128.85" cy="223.88" r="21.52" style="fill:#fff;opacity:0.8;isolation:isolate"></circle><path d="M109.73,138.36a.5.5,0,0,1-.12-1c.63-.16,1.26-.35,1.88-.56a.5.5,0,1,1,.32.94c-.64.22-1.3.42-2,.59Zm-14.79-.44-.15,0a26.84,26.84,0,0,1-4.67-2,.5.5,0,1,1,.48-.88A26.24,26.24,0,0,0,95.09,137a.5.5,0,0,1,.33.63A.5.5,0,0,1,94.94,137.92Zm-7.13-3.56a.47.47,0,0,1-.28-.09A27.08,27.08,0,0,1,78.1,122.5a.5.5,0,0,1,.93-.38,26,26,0,0,0,9.07,11.33.5.5,0,0,1-.29.91Zm32.48-1.48A.5.5,0,0,1,120,132a26,26,0,0,0,8-12.11.5.5,0,0,1,1,.29,27.08,27.08,0,0,1-8.32,12.58A.49.49,0,0,1,120.29,132.88Zm8.88-15.26h-.09a.51.51,0,0,1-.4-.59,25.59,25.59,0,0,0,.46-4.87,26.07,26.07,0,0,0-1.42-8.51A.51.51,0,0,1,128,103a.5.5,0,0,1,.63.31,27,27,0,0,1,1.48,8.84,27.62,27.62,0,0,1-.47,5.06A.5.5,0,0,1,129.17,117.62Zm-52.61-4.55a.49.49,0,0,1-.5-.49v-.42c0-.54,0-1.08,0-1.61a.51.51,0,0,1,.53-.47.49.49,0,0,1,.47.53c0,.51,0,1,0,1.55v.41a.5.5,0,0,1-.5.5Zm50.49-11.86a.5.5,0,0,1-.45-.28,25.54,25.54,0,0,0-2.52-4.2.5.5,0,0,1,.11-.7.49.49,0,0,1,.69.11,26.39,26.39,0,0,1,2.62,4.36.49.49,0,0,1-.23.66A.44.44,0,0,1,127.05,101.21ZM81.56,97.14a.46.46,0,0,1-.29-.1.49.49,0,0,1-.11-.7,26.42,26.42,0,0,1,3.35-3.82.5.5,0,1,1,.68.72A26.86,26.86,0,0,0,82,96.93.49.49,0,0,1,81.56,97.14Zm5.58-5.7a.49.49,0,0,1-.3-.89,26.77,26.77,0,0,1,14.09-5.35.5.5,0,0,1,.54.46.51.51,0,0,1-.46.54,26,26,0,0,0-13.57,5.14A.49.49,0,0,1,87.14,91.44Zm25.6-3.52a.57.57,0,0,1-.18,0c-.61-.24-1.23-.46-1.85-.65a.5.5,0,0,1-.34-.62.49.49,0,0,1,.63-.33c.64.19,1.29.42,1.92.67a.5.5,0,0,1,.29.64A.51.51,0,0,1,112.74,87.92Z" style="fill:#407BFF"></path><circle cx="103.1" cy="112.16" r="21.51" transform="translate(-35.07 47.99) rotate(-22.5)" style="fill:#407BFF"></circle><circle cx="103.1" cy="112.16" r="21.51" transform="translate(-35.07 47.99) rotate(-22.5)" style="fill:#fff;opacity:0.8;isolation:isolate"></circle><path d="M137.07,227h-3a.25.25,0,0,1-.25-.23l-.13-1.35a8,8,0,0,1-2.5-1l-1.05.87a.26.26,0,0,1-.34,0l-2.11-2.11a.24.24,0,0,1,0-.33l.87-1a8.26,8.26,0,0,1-1-2.51l-1.35-.12a.26.26,0,0,1-.23-.25v-3a.25.25,0,0,1,.23-.24l1.35-.13a8.26,8.26,0,0,1,1-2.51l-.87-1.05a.24.24,0,0,1,0-.33l2.11-2.11a.26.26,0,0,1,.34,0l1.05.87a8.55,8.55,0,0,1,2.5-1l.13-1.35a.25.25,0,0,1,.25-.23h3a.25.25,0,0,1,.25.23l.13,1.35a8.55,8.55,0,0,1,2.5,1l1.05-.87a.26.26,0,0,1,.34,0l2.11,2.11a.25.25,0,0,1,0,.33l-.87,1.05a8,8,0,0,1,1,2.51l1.36.13a.24.24,0,0,1,.22.24v3a.25.25,0,0,1-.22.25l-1.36.12a8,8,0,0,1-1,2.51l.87,1a.25.25,0,0,1,0,.33l-2.11,2.11a.26.26,0,0,1-.34,0l-1.05-.87a8,8,0,0,1-2.5,1l-.13,1.35A.25.25,0,0,1,137.07,227Zm-2.75-.5h2.52l.13-1.31a.25.25,0,0,1,.19-.22,7.73,7.73,0,0,0,2.67-1.11.26.26,0,0,1,.3,0l1,.84,1.79-1.79-.84-1a.24.24,0,0,1,0-.29,7.54,7.54,0,0,0,1.11-2.67.25.25,0,0,1,.22-.2l1.31-.12v-2.53L143.4,216a.25.25,0,0,1-.22-.2,7.62,7.62,0,0,0-1.11-2.67.24.24,0,0,1,0-.29l.84-1L141.14,210l-1,.84a.26.26,0,0,1-.3,0,7.73,7.73,0,0,0-2.67-1.11.25.25,0,0,1-.19-.22l-.13-1.31h-2.52l-.13,1.31a.24.24,0,0,1-.2.22,7.76,7.76,0,0,0-2.66,1.11.25.25,0,0,1-.3,0l-1-.84-1.78,1.79.84,1a.24.24,0,0,1,0,.29,7.93,7.93,0,0,0-1.11,2.67.24.24,0,0,1-.22.2l-1.31.12v2.53l1.31.12a.24.24,0,0,1,.22.2,7.73,7.73,0,0,0,1.11,2.67.26.26,0,0,1,0,.3l-.84,1,1.78,1.79,1-.84a.25.25,0,0,1,.3,0,7.76,7.76,0,0,0,2.66,1.11.24.24,0,0,1,.2.22Zm1.26-4.85a4.29,4.29,0,1,1,4.29-4.28A4.29,4.29,0,0,1,135.58,221.62Zm0-8.07a3.79,3.79,0,1,0,3.79,3.79A3.79,3.79,0,0,0,135.58,213.55Z" style="fill:#407BFF"></path><path d="M128,240.06h-2.34a.26.26,0,0,1-.25-.23l-.09-1a6.52,6.52,0,0,1-1.91-.8l-.79.66a.26.26,0,0,1-.34,0L120.6,237a.25.25,0,0,1,0-.33l.66-.8a6.33,6.33,0,0,1-.79-1.9l-1-.1a.25.25,0,0,1-.22-.25v-2.34a.25.25,0,0,1,.22-.24l1-.1a6.49,6.49,0,0,1,.79-1.91l-.66-.79a.26.26,0,0,1,0-.34l1.65-1.65a.26.26,0,0,1,.34,0l.79.66a6.49,6.49,0,0,1,1.91-.79l.09-1a.26.26,0,0,1,.25-.23H128a.25.25,0,0,1,.25.23l.1,1a6.33,6.33,0,0,1,1.9.79l.8-.66a.25.25,0,0,1,.33,0L133,227.9a.25.25,0,0,1,0,.34l-.66.79a6.52,6.52,0,0,1,.8,1.91l1,.1a.25.25,0,0,1,.23.24v2.34a.25.25,0,0,1-.23.25l-1,.1a6.35,6.35,0,0,1-.8,1.9l.66.8a.24.24,0,0,1,0,.33l-1.65,1.66a.25.25,0,0,1-.33,0l-.8-.66a6.35,6.35,0,0,1-1.9.8l-.1,1A.25.25,0,0,1,128,240.06Zm-2.11-.5h1.88l.09-1a.26.26,0,0,1,.2-.22,5.8,5.8,0,0,0,2.07-.86.25.25,0,0,1,.3,0l.76.63,1.33-1.33-.63-.76a.24.24,0,0,1,0-.29,6.12,6.12,0,0,0,.86-2.08.25.25,0,0,1,.22-.19l1-.1v-1.88l-1-.09a.24.24,0,0,1-.22-.2,6,6,0,0,0-.86-2.07.26.26,0,0,1,0-.3l.63-.76-1.33-1.33-.76.63a.25.25,0,0,1-.3,0,5.8,5.8,0,0,0-2.07-.86.27.27,0,0,1-.2-.22l-.09-1h-1.88l-.09,1a.25.25,0,0,1-.2.22,5.88,5.88,0,0,0-2.07.86.26.26,0,0,1-.3,0l-.76-.63-1.33,1.33.63.76a.26.26,0,0,1,0,.3,6,6,0,0,0-.86,2.07.27.27,0,0,1-.23.2l-1,.09v1.88l1,.1a.27.27,0,0,1,.23.19,5.92,5.92,0,0,0,.86,2.08.24.24,0,0,1,0,.29l-.63.76,1.33,1.33.76-.63a.26.26,0,0,1,.3,0,6,6,0,0,0,2.07.86.24.24,0,0,1,.2.22Zm.94-3.69a3.42,3.42,0,1,1,3.42-3.42A3.42,3.42,0,0,1,126.8,235.87Zm0-6.33a2.92,2.92,0,1,0,2.92,2.91A2.92,2.92,0,0,0,126.8,229.54Z" style="fill:#407BFF"></path><path d="M121,224.42l.65.79,1.62-1.11-.49-.89a5.37,5.37,0,0,0,1.08-1.64l1,.09.36-1.93-1-.28a5.41,5.41,0,0,0-.41-1.92l.79-.65-1.11-1.62-.89.49a5.37,5.37,0,0,0-1.64-1.08l.09-1-1.93-.36-.28,1a5.41,5.41,0,0,0-1.92.41l-.65-.78-1.62,1.1.49.89a5.37,5.37,0,0,0-1.08,1.64l-1-.09-.36,1.93,1,.28a5.41,5.41,0,0,0,.41,1.92l-.78.65,1.1,1.62.89-.49a5.3,5.3,0,0,0,1.65,1.08l-.1,1,1.93.36.28-1A5.41,5.41,0,0,0,121,224.42Zm-4.63-5.36a2.66,2.66,0,1,1,2.12,3.1A2.66,2.66,0,0,1,116.37,219.06Z" style="fill:#407BFF"></path><path d="M104.5,118.2a2.31,2.31,0,1,0-.67-2.37l-.94-3.3-2,.57.18.23a3.06,3.06,0,0,1,.49,1A2.9,2.9,0,0,1,96,115.88a2.77,2.77,0,0,1-.09-1.08l0-.29-2.21.63.75,2.64,1.65,5.81h0a.82.82,0,0,0,.12.25.46.46,0,0,1,.07.07.69.69,0,0,0,.13.11l.1,0,.16.05.1,0a1.14,1.14,0,0,0,.26,0l4.17-1.19,4.28-1.22Z" style="fill:none"></path><path d="M109.64,108.59a2.3,2.3,0,0,0-3.41-1.33,2.26,2.26,0,0,0-1.11,2,2.3,2.3,0,0,0,1.65,2.18l-3.3.94.57,2,.23-.18a2.7,2.7,0,0,1,1-.49,2.9,2.9,0,1,1,1.58,5.58,2.77,2.77,0,0,1-1.08.09l-.29,0,.63,2.21,8.45-2.4a.78.78,0,0,0,.53-.92v0l-1.55-5.45-.86-3-3.51,1A2.3,2.3,0,0,0,109.64,108.59Z" style="fill:none"></path><path d="M91.13,106.08s0,0,0,0l2.4,8.45,3.51-1a2.3,2.3,0,0,0,2.92,3.5,2.3,2.3,0,0,0-.55-4.17l3.31-.94-.57-2-.24.18a3.12,3.12,0,0,1-1,.49A2.9,2.9,0,1,1,99.37,105a2.78,2.78,0,0,1,1.08-.09l.29,0-.63-2.22-8.45,2.4A.78.78,0,0,0,91.13,106.08Z" style="fill:none"></path><path d="M116,117.93l-5-17.48a1.78,1.78,0,0,0-.84-1.06,1.72,1.72,0,0,0-.86-.22,2,2,0,0,0-.48.06l-17.48,5a1.78,1.78,0,0,0-1.22,2.19l5,17.47a1.79,1.79,0,0,0,1.7,1.29,2,2,0,0,0,.49-.07l17.47-5A1.77,1.77,0,0,0,116,117.93Zm-19,6.19a1.14,1.14,0,0,1-.26,0l-.1,0-.16-.05-.1,0a.69.69,0,0,1-.13-.11.46.46,0,0,0-.07-.07.82.82,0,0,1-.12-.25h0l-1.65-5.81-.75-2.64,2.21-.63,0,.29a2.77,2.77,0,0,0,.09,1.08,2.9,2.9,0,0,0,5.58-1.58,3.06,3.06,0,0,0-.49-1l-.18-.23,2-.57.94,3.3a2.3,2.3,0,1,1,.67,2.37l1,3.51-4.28,1.22Zm16.46-11.37,1.55,5.45v0a.78.78,0,0,1-.53.92l-8.45,2.4-.63-2.21.29,0a2.77,2.77,0,0,0,1.08-.09,2.9,2.9,0,1,0-1.58-5.58,2.7,2.7,0,0,0-1,.49l-.23.18-.57-2,3.3-.94a2.3,2.3,0,0,1-1.65-2.18,2.26,2.26,0,0,1,1.11-2,2.3,2.3,0,0,1,2.91,3.49l3.51-1ZM100.74,105l-.29,0a2.78,2.78,0,0,0-1.08.09,2.9,2.9,0,1,0,1.59,5.58,3.12,3.12,0,0,0,1-.49l.24-.18.57,2-3.31.94a2.3,2.3,0,0,1,.55,4.17,2.3,2.3,0,0,1-2.92-3.5l-3.51,1-2.4-8.45s0,0,0,0a.78.78,0,0,1,.53-.92l8.45-2.4Z" style="fill:#407BFF"></path><path d="M351.21,262a.5.5,0,0,1-.07-1c.66-.09,1.3-.19,1.95-.31a.5.5,0,1,1,.18,1c-.66.13-1.33.23-2,.32Zm-14.79-1.52a.51.51,0,0,1-.17,0c-.54-.19-1.09-.39-1.64-.61-1-.42-2-.88-3-1.39a.51.51,0,0,1-.22-.68.52.52,0,0,1,.68-.21,30.89,30.89,0,0,0,2.92,1.35c.53.21,1.07.41,1.6.59a.5.5,0,0,1-.16,1Zm26.16-2.1a.49.49,0,0,1-.44-.26.51.51,0,0,1,.2-.68,32.45,32.45,0,0,0,11-9.62.5.5,0,0,1,.7-.11.51.51,0,0,1,.11.7,33.54,33.54,0,0,1-11.38,9.92A.46.46,0,0,1,362.58,258.39ZM329.23,257a.56.56,0,0,1-.27-.08,33.57,33.57,0,0,1-10.5-10.84.5.5,0,1,1,.86-.51,32.49,32.49,0,0,0,10.19,10.51.5.5,0,0,1,.15.69A.51.51,0,0,1,329.23,257Zm46.2-10.9a.48.48,0,0,1-.26-.07.49.49,0,0,1-.17-.68,34.69,34.69,0,0,0,2.17-4.41.5.5,0,1,1,.93.37,35.56,35.56,0,0,1-2.24,4.55A.52.52,0,0,1,375.43,246.11Zm2.87-6.28-.16,0a.52.52,0,0,1-.32-.64,31.66,31.66,0,0,0,1.22-4.76.5.5,0,1,1,1,.17,33.33,33.33,0,0,1-1.25,4.91A.49.49,0,0,1,378.3,239.83Zm-63.2-2.71a.5.5,0,0,1-.49-.38c-.16-.66-.3-1.32-.42-2a.5.5,0,0,1,.4-.58.51.51,0,0,1,.58.41c.12.64.26,1.29.41,1.92a.51.51,0,0,1-.36.61Zm.33-16.8-.14,0a.51.51,0,0,1-.35-.62c.32-1.12.71-2.23,1.14-3.32.2-.49.41-1,.62-1.44a.49.49,0,0,1,.66-.24.5.5,0,0,1,.25.66c-.21.46-.41.92-.6,1.39-.42,1.06-.79,2.14-1.1,3.22A.52.52,0,0,1,315.43,220.32Zm63.28-.17a.49.49,0,0,1-.48-.36c-.19-.63-.39-1.26-.61-1.88a.5.5,0,0,1,.94-.33c.23.63.44,1.28.63,1.93a.51.51,0,0,1-.34.62ZM318.52,213a.5.5,0,0,1-.24-.06.5.5,0,0,1-.19-.68,33.48,33.48,0,0,1,10.27-11.07.5.5,0,0,1,.69.14.49.49,0,0,1-.13.69,32.56,32.56,0,0,0-10,10.73A.5.5,0,0,1,318.52,213Zm54.84-3.48a.51.51,0,0,1-.4-.2,32.07,32.07,0,0,0-11.24-9.38.5.5,0,0,1,.45-.89,33,33,0,0,1,11.59,9.67.51.51,0,0,1-.1.7A.49.49,0,0,1,373.36,209.48Zm-14.15-10.75a.43.43,0,0,1-.19,0,33,33,0,0,0-4.69-1.46.5.5,0,1,1,.22-1,34.33,34.33,0,0,1,4.84,1.51.5.5,0,0,1,.28.65A.48.48,0,0,1,359.21,198.73Zm-21.57-.93a.5.5,0,0,1-.14-1c.64-.19,1.3-.37,2-.52a.5.5,0,1,1,.23,1c-.64.15-1.28.32-1.91.51Z" style="fill:#407BFF"></path><circle cx="347.09" cy="228.84" r="26.69" transform="matrix(0.97, -0.23, 0.23, 0.97, -42.7, 84.26)" style="fill:#407BFF"></circle><circle cx="347.09" cy="228.84" r="26.69" transform="matrix(0.97, -0.23, 0.23, 0.97, -42.7, 84.26)" style="fill:#fff;opacity:0.8;isolation:isolate"></circle><path d="M347.07,242.66a14,14,0,1,1,1.35-.07A12.21,12.21,0,0,1,347.07,242.66Zm0-25.63a11.81,11.81,0,1,0,9.11,19.32h0A11.81,11.81,0,0,0,347.1,217Z" style="fill:#407BFF"></path><path d="M347.07,237.4a8.48,8.48,0,0,1-5.42-2h0a8.56,8.56,0,0,1,10.88-13.22,8.56,8.56,0,0,1-4.61,15.13A8.19,8.19,0,0,1,347.07,237.4Zm-4.15-3.49a6.56,6.56,0,1,0-.9-9.24,6.52,6.52,0,0,0,.9,9.24Z" style="fill:#407BFF"></path><path d="M347.08,232.15a3.22,3.22,0,0,1-2.09-.76,3.26,3.26,0,0,1-1.19-2.23,3.31,3.31,0,0,1,3-3.61,3.31,3.31,0,0,1,2.88,5.39,3.3,3.3,0,0,1-2.24,1.19Zm0-4.62H347a1.31,1.31,0,0,0-.7,2.31h0a1.3,1.3,0,0,0,1.84-.18,1.28,1.28,0,0,0,.29-1,1.27,1.27,0,0,0-.47-.88A1.25,1.25,0,0,0,347.09,227.53Z" style="fill:#407BFF"></path><path d="M347.09,229.34a.56.56,0,0,1-.32-.11l-13.91-11.46a.49.49,0,0,1-.06-.7.5.5,0,0,1,.7-.07l13.91,11.45a.5.5,0,0,1-.32.89Z" style="fill:#407BFF"></path><path d="M332.36,220.31a.52.52,0,0,1-.5-.46.5.5,0,0,1,.45-.54l2.87-.28-.28-2.86a.5.5,0,0,1,.45-.55.5.5,0,0,1,.55.45l.32,3.36a.5.5,0,0,1-.45.55l-3.36.32Z" style="fill:#407BFF"></path><path d="M330.9,219.1a.5.5,0,0,1,0-1l2.87-.28-.28-2.87a.5.5,0,0,1,1-.09l.32,3.36a.5.5,0,0,1-.45.55l-3.36.32Z" style="fill:#407BFF"></path><path d="M329.44,217.9a.51.51,0,0,1-.5-.45.52.52,0,0,1,.45-.55l2.87-.27-.28-2.87a.49.49,0,0,1,.45-.54.5.5,0,0,1,.55.45l.32,3.36a.49.49,0,0,1-.45.54l-3.36.33Z" style="fill:#407BFF"></path><path d="M187.44,125.09h-.07l-58.07-8.67a.49.49,0,0,1-.42-.57.5.5,0,0,1,.56-.42l58.08,8.67a.5.5,0,0,1,.42.57A.51.51,0,0,1,187.44,125.09Z" style="fill:#407BFF"></path><path d="M148.06,206.07a.5.5,0,0,1-.34-.86l49.95-47.58a.49.49,0,0,1,.7,0,.5.5,0,0,1,0,.71l-50,47.58A.47.47,0,0,1,148.06,206.07Z" style="fill:#407BFF"></path><path d="M321.6,208.48a.45.45,0,0,1-.31-.11l-63.85-52.25a.5.5,0,1,1,.63-.77l63.85,52.25a.5.5,0,0,1-.32.88Z" style="fill:#407BFF"></path><path d="M265.39,120.6a.5.5,0,0,1-.13-1l53.38-14.39a.5.5,0,1,1,.27,1l-53.39,14.4Z" style="fill:#407BFF"></path></g><g id="freepik--Podium--inject-20"><polygon points="413.95 359.55 382.08 359.55 377.7 359.55 377.7 336.75 363.7 336.75 331.83 336.75 317.83 336.75 317.83 375.91 313.44 375.91 281.57 375.91 267.57 375.91 267.57 413.84 281.57 413.84 313.44 413.84 317.83 413.84 327.44 413.84 331.83 413.84 363.7 413.84 368.08 413.84 377.7 413.84 382.08 413.84 413.95 413.84 427.95 413.84 427.95 359.55 413.95 359.55" style="fill:#407BFF"></polygon><g style="opacity:0.30000000000000004;isolation:isolate"><rect x="267.57" y="375.91" width="45.87" height="37.92" style="fill:#fff"></rect><rect x="317.83" y="336.75" width="45.87" height="77.09" style="fill:#fff"></rect><rect x="368.08" y="359.55" width="45.87" height="54.29" style="fill:#fff"></rect></g><path d="M342.17,348.36v17.06H339V351h-3.61v-2.65Z" style="fill:#fff"></path><path d="M396.52,387v2.68H383.94v-2.12l6.78-6.44c1.66-1.58,1.95-2.58,1.95-3.53,0-1.56-1.07-2.47-3.17-2.47a4.81,4.81,0,0,0-4,1.78l-2.22-1.7a7.89,7.89,0,0,1,6.49-2.83c3.71,0,6.09,1.88,6.09,4.9,0,1.66-.46,3.17-2.82,5.39L388.48,387Z" style="fill:#fff"></path><path d="M296.6,398.23c0,2.87-2.17,5.36-6.75,5.36a10.67,10.67,0,0,1-6.41-2l1.36-2.46a7.94,7.94,0,0,0,5,1.68c2.27,0,3.61-1,3.61-2.58s-1.12-2.54-3.71-2.54h-1.56v-2.17l3.88-4.61h-7.75v-2.65H295.9v2.12l-4.15,4.92C295,393.74,296.6,395.67,296.6,398.23Z" style="fill:#fff"></path></g><g id="freepik--Trophy--inject-20"><rect x="108.08" y="317.79" width="8.06" height="96.05" style="fill:#407BFF"></rect><polygon points="103.65 369.03 96.97 357.38 83.19 357.84 104.16 319.49 124.63 330.68 103.65 369.03" style="fill:#407BFF"></polygon><polygon points="103.65 369.03 96.97 357.38 83.19 357.84 104.16 319.49 124.63 330.68 103.65 369.03" style="fill:#fff;opacity:0.2;isolation:isolate"></polygon><polygon points="141.84 357.98 128.44 357.23 121.31 369.04 100.59 330.55 121.13 319.49 141.84 357.98" style="fill:#407BFF"></polygon><polygon points="141.84 357.98 128.44 357.23 121.31 369.04 100.59 330.55 121.13 319.49 141.84 357.98" style="fill:#fff;opacity:0.2;isolation:isolate"></polygon><polygon points="109.16 287.17 113.14 289.3 117.25 287.43 120.57 290.48 125.01 289.7 127.47 293.48 131.97 293.82 133.42 298.09 137.69 299.54 138.02 304.04 141.8 306.51 141.01 310.95 144.05 314.28 142.18 318.38 144.3 322.36 141.47 325.87 142.53 330.26 138.91 332.95 138.85 337.46 134.68 339.17 133.5 343.53 129.03 344.14 126.81 348.07 122.32 347.56 119.19 350.8 114.98 349.19 111.14 351.56 107.46 348.95 103.15 350.29 100.23 346.85 95.73 347.07 93.76 343.01 89.34 342.11 88.44 337.69 84.39 335.71 84.62 331.21 81.18 328.29 82.52 323.98 79.92 320.29 82.29 316.46 80.69 312.24 83.94 309.12 83.43 304.63 87.36 302.41 87.98 297.94 92.34 296.77 94.06 292.6 98.56 292.55 101.27 288.93 105.65 290 109.16 287.17" style="fill:#407BFF"></polygon><circle cx="112.16" cy="319.18" r="27.25" transform="translate(-100.08 55.72) rotate(-19.49)" style="fill:#fff;opacity:0.4;isolation:isolate"></circle><path d="M112.9,317.12l-.34,4.89,3.93-.37-.22,3.89-4,.38-.42,6.09-3.81.36.42-6.1-3.31.31-.43,6.1-3.81.36.43-6.1-3.76.35.22-3.89,3.81-.36.34-4.89-3.75.36.23-3.9,3.8-.36.48-7,3.82-.35-.49,7,3.31-.31.49-7,3.81-.36-.49,7,4-.37-.23,3.89Zm-3.83.36-3.3.31-.32,4.88,3.3-.31Z" style="fill:#407BFF"></path><path d="M124.74,330.79l-1.83-19.51-3.26.31-.25-2.67a5.61,5.61,0,0,0,2.52-1.28,5.24,5.24,0,0,0,1.59-2.31l2.67-.25,2.38,25.36Z" style="fill:#407BFF"></path><rect x="92.84" y="410.45" width="38.55" height="3.38" style="fill:#407BFF"></rect><polygon points="131.38 410.45 92.84 410.45 107.84 404.04 116.38 404.04 131.38 410.45" style="fill:#407BFF"></polygon><polygon points="131.38 410.45 92.84 410.45 107.84 404.04 116.38 404.04 131.38 410.45" style="fill:#fff;opacity:0.4;isolation:isolate"></polygon><rect x="92.84" y="410.45" width="38.55" height="3.38" style="fill:#fff;opacity:0.2;isolation:isolate"></rect></g><g id="freepik--Character--inject-20"><g id="freepik--group--inject-20"><polygon points="183.01 404.59 172.91 413.7 164.24 412.66 175.91 399.85 183.01 404.59" style="fill:#e4897b"></polygon><polygon points="326.65 404.77 337.82 412.53 346.29 410.4 333.09 399.17 326.65 404.77" style="fill:#e4897b"></polygon><path d="M169.29,403.35l8,7.74s57.89-46.18,58.84-53.91,0-48.91,0-48.91,7.73,9.05,19.69,22.48c19.2,21.59,49.29,54.49,75.65,79.34l9.29-6.44c-66.85-83.44-88.11-128.07-88.11-128.07l-2.75-21-38.42-3.48s-9.24,24.2-6.74,42.17,12,51.41,11,58.15S169.29,403.35,169.29,403.35Z" style="fill:#263238"></path><path d="M173.56,412.12H164a.7.7,0,0,0-.68.54l-1.55,7a1.16,1.16,0,0,0,.9,1.38,1.07,1.07,0,0,0,.25,0c3.1-.05,5.36-.24,9.26-.24,2.4,0,9.64.25,13,.25s3.74-3.27,2.39-3.58c-6.09-1.32-10.67-3.16-12.62-4.91A1.89,1.89,0,0,0,173.56,412.12Z" style="fill:#263238"></path><path d="M344.64,408.33,336,412.41a.7.7,0,0,0-.38.78l1.58,7a1.17,1.17,0,0,0,1.41.87l.24-.09c2.78-1.36,4.75-2.5,8.27-4.16,2.18-1,8.84-3.87,11.83-5.28s2-4.56.65-4.25c-6.08,1.39-11,1.67-13.51.92A1.87,1.87,0,0,0,344.64,408.33Z" style="fill:#263238"></path><path d="M234.55,290l1.57,18.23s7.73,9.05,19.69,22.48c-12.69-20.49-16.12-34.6-16.12-34.6,4.14-5.53,4.57-14.37,4.57-14.37Z" style="opacity:0.30000000000000004;isolation:isolate"></path><path d="M215.31,158.68l2.77-3.25,2,.15c.66,0,7.39-6.85,7.36-7.23s-3.94-3-4.88-3.08-5.5,5-5.5,5l-.15,2-4.25,3.43Z" style="fill:#e4897b"></path><path d="M244.44,163.35l-2.41-2.1s-3.62,1-3.86-.29a45.31,45.31,0,0,1,0-5.62l.79-7.63s3.08-.9,4.37.32.07,10.1.07,10.1l5.9,5.58Z" style="fill:#e4897b"></path><path d="M249.74,202.27c4-4.14,9.34-18.24,9.06-22.07s-15.8-17-15.8-17l2.09-3.78s19.61,12,21.86,17-5.25,35.2-15.68,43l-5.79-8.14Z" style="fill:#407BFF"></path><path d="M249.74,202.27c4-4.14,9.34-18.24,9.06-22.07s-15.8-17-15.8-17l2.09-3.78s19.61,12,21.86,17-5.25,35.2-15.68,43l-5.79-8.14Z" style="fill:#fff;opacity:0.5;isolation:isolate"></path><polygon points="249.48 256.18 209.1 256.18 209.1 260.98 250 260.49 249.48 256.18"></polygon><rect x="222.08" y="254.01" width="1.44" height="8.53" transform="translate(445.6 516.56) rotate(180)" style="fill:#263238"></rect><rect x="242.51" y="254.01" width="1.44" height="8.53" transform="translate(486.46 516.56) rotate(180)" style="fill:#263238"></rect><rect x="231.07" y="255.33" width="7.47" height="5.38" transform="translate(469.62 516.05) rotate(180)" style="fill:#fff"></rect><path d="M210.46,121.54a4.54,4.54,0,0,0-2.49-2.86,5.73,5.73,0,0,0-3.47-.44,5.65,5.65,0,0,0-3.1,1.63,3.8,3.8,0,0,0-.57.7,3.93,3.93,0,0,0-.44.77l-.18.4-.12.38-.22.77a8.3,8.3,0,0,0,1,6.17,11.55,11.55,0,0,0,4.41,4.1,16.29,16.29,0,0,0,5.54,1.79,18.57,18.57,0,0,0,2.87.21,14.4,14.4,0,0,1,2.61.11,3.63,3.63,0,0,1,2,1,1.62,1.62,0,0,1,.38,1.82,1.29,1.29,0,0,1-1.61.53,1,1,0,0,1,0-1.83,1.22,1.22,0,0,0-1.14,1,1.66,1.66,0,0,0,.55,1.6,1.92,1.92,0,0,0,1.73.37,2.41,2.41,0,0,0,1.45-1,2.86,2.86,0,0,0-.38-3.29,5.05,5.05,0,0,0-2.73-1.59,17,17,0,0,0-2.88-.29,16.46,16.46,0,0,1-2.62-.33,14.72,14.72,0,0,1-4.82-1.83,9.27,9.27,0,0,1-3.47-3.45,6.24,6.24,0,0,1-.55-4.71,3.24,3.24,0,0,1,4-2.31c1.71.57,2.76,2.32,3.33,3.92Z" style="fill:#407BFF"></path><path d="M236,116.79a4.55,4.55,0,0,1,1.28-3.56,5.74,5.74,0,0,1,3.09-1.66,5.66,5.66,0,0,1,3.48.4,5.38,5.38,0,0,1,1.46,1l.32.3.25.32.48.64a8.24,8.24,0,0,1,1.25,6.13,11.41,11.41,0,0,1-2.63,5.4,16.22,16.22,0,0,1-4.52,3.67,18.78,18.78,0,0,1-2.61,1.23,14.89,14.89,0,0,0-2.39,1,3.65,3.65,0,0,0-1.54,1.68,1.63,1.63,0,0,0,.3,1.83,1.3,1.3,0,0,0,1.7-.08,1,1,0,0,0-.69-1.7,1.2,1.2,0,0,1,1.4.49,1.65,1.65,0,0,1,.07,1.69,1.92,1.92,0,0,1-1.49,1,2.37,2.37,0,0,1-1.71-.44,2.85,2.85,0,0,1-.83-3.2,4.94,4.94,0,0,1,2-2.46,15.39,15.39,0,0,1,2.59-1.31,17.29,17.29,0,0,0,2.32-1.25,14.76,14.76,0,0,0,3.84-3.45,9.27,9.27,0,0,0,2-4.46,6.3,6.3,0,0,0-1.19-4.6,3.23,3.23,0,0,0-4.58-.7c-1.39,1.14-1.74,3.15-1.69,4.85Z" style="fill:#407BFF"></path><g style="opacity:0.2;isolation:isolate"><path d="M210.46,121.54a4.54,4.54,0,0,0-2.49-2.86,5.73,5.73,0,0,0-3.47-.44,5.65,5.65,0,0,0-3.1,1.63,3.8,3.8,0,0,0-.57.7,3.93,3.93,0,0,0-.44.77l-.18.4-.12.38-.22.77a8.3,8.3,0,0,0,1,6.17,11.55,11.55,0,0,0,4.41,4.1,16.29,16.29,0,0,0,5.54,1.79,18.57,18.57,0,0,0,2.87.21,14.4,14.4,0,0,1,2.61.11,3.63,3.63,0,0,1,2,1,1.62,1.62,0,0,1,.38,1.82,1.29,1.29,0,0,1-1.61.53,1,1,0,0,1,0-1.83,1.22,1.22,0,0,0-1.14,1,1.66,1.66,0,0,0,.55,1.6,1.92,1.92,0,0,0,1.73.37,2.41,2.41,0,0,0,1.45-1,2.86,2.86,0,0,0-.38-3.29,5.05,5.05,0,0,0-2.73-1.59,17,17,0,0,0-2.88-.29,16.46,16.46,0,0,1-2.62-.33,14.72,14.72,0,0,1-4.82-1.83,9.27,9.27,0,0,1-3.47-3.45,6.24,6.24,0,0,1-.55-4.71,3.24,3.24,0,0,1,4-2.31c1.71.57,2.76,2.32,3.33,3.92Z"></path><path d="M236,116.79a4.55,4.55,0,0,1,1.28-3.56,5.74,5.74,0,0,1,3.09-1.66,5.66,5.66,0,0,1,3.48.4,5.38,5.38,0,0,1,1.46,1l.32.3.25.32.48.64a8.24,8.24,0,0,1,1.25,6.13,11.41,11.41,0,0,1-2.63,5.4,16.22,16.22,0,0,1-4.52,3.67,18.78,18.78,0,0,1-2.61,1.23,14.89,14.89,0,0,0-2.39,1,3.65,3.65,0,0,0-1.54,1.68,1.63,1.63,0,0,0,.3,1.83,1.3,1.3,0,0,0,1.7-.08,1,1,0,0,0-.69-1.7,1.2,1.2,0,0,1,1.4.49,1.65,1.65,0,0,1,.07,1.69,1.92,1.92,0,0,1-1.49,1,2.37,2.37,0,0,1-1.71-.44,2.85,2.85,0,0,1-.83-3.2,4.94,4.94,0,0,1,2-2.46,15.39,15.39,0,0,1,2.59-1.31,17.29,17.29,0,0,0,2.32-1.25,14.76,14.76,0,0,0,3.84-3.45,9.27,9.27,0,0,0,2-4.46,6.3,6.3,0,0,0-1.19-4.6,3.23,3.23,0,0,0-4.58-.7c-1.39,1.14-1.74,3.15-1.69,4.85Z"></path></g><path d="M222,137.06c-5.71-1.49-10.85-6.73-13.08-14l-1-3.33,29.77-5.55.24,3.48c.53,7.56-2.38,14.3-7.18,17.75a4.24,4.24,0,0,0-1.65,4.1l1.09,6.57a3.26,3.26,0,0,0,3.28,2.74,5.87,5.87,0,0,1,3.94,1.38l1.33,1.15-18.42,3.43.83-1.56a5.92,5.92,0,0,1,3.18-2.7,3.26,3.26,0,0,0,2.07-3.74l-1.34-6.52A4.25,4.25,0,0,0,222,137.06Z" style="fill:#407BFF"></path><polygon points="239.43 149.66 219.06 153.45 219.52 160.21 241.43 156.13 239.43 149.66" style="fill:#263238"></polygon><polygon points="234.78 150.52 223.71 152.59 224.17 159.34 236.78 156.99 234.78 150.52" style="fill:#fff;opacity:0.2;isolation:isolate"></polygon><rect x="226.48" y="153.49" width="6.73" height="2.62" transform="translate(484.15 264.89) rotate(169.45)" style="fill:#fff"></rect><path d="M229.8,134.85a4.71,4.71,0,0,0-1.47,4.44l1.38,7.43c.27,1.46.8,1.93,2.45,2.23a5.74,5.74,0,0,1,2.69,1.08l-3.1.57a3.72,3.72,0,0,0-1.05-.42l-.47-.1a1.64,1.64,0,0,1-1.26-1.3l-2.25-12.08a2.86,2.86,0,0,1,.68-2.42l.61-.68a14.89,14.89,0,0,0,3.77-10.38l-.24-7,4.47-.84-.18,8.05C235.74,127.28,233.29,132,229.8,134.85Z" style="fill:#fff;opacity:0.30000000000000004;isolation:isolate"></path><path d="M223.14,206.55c3.22,3.4,11.79,2.87,11.79,2.87s5.4-1,4.41-2.79c-3.08-.75-4.48-2.32-5-4.22a9,9,0,0,1,0-3.59,17.08,17.08,0,0,1,.41-2l-9.9-8.55C225.83,193.54,226.8,203.09,223.14,206.55Z" style="fill:#e4897b"></path><path d="M226.89,193.43c0,6.31,5,8.44,7.49,9a9,9,0,0,1,0-3.59Z" style="opacity:0.2;isolation:isolate"></path><path d="M239.81,176.17s2.22-5.11-4.49-8.32-22.44.34-18.73,11.74S239.81,176.17,239.81,176.17Z" style="fill:#263238"></path><path d="M238.52,172.19s4.17,7.26.61,12.8-10.38-11.87-10.38-11.87Z" style="fill:#263238"></path><path d="M226.69,197.39a11.4,11.4,0,0,0,.94.69,9.11,9.11,0,0,0,11-.52,10.18,10.18,0,0,0,3.67-6.52,9.4,9.4,0,0,0,.11-1.08,22.65,22.65,0,0,0-.06-2.3c-.48-6.52-3.71-14.84-10.4-16.07a9.91,9.91,0,0,0-11.35,12.46C222.37,190.48,223.16,194.55,226.69,197.39Z" style="fill:#e4897b"></path><path d="M231.79,183.8c.08.58.52,1,.9.9s.58-.61.46-1.19-.52-1-.89-.9S231.67,183.22,231.79,183.8Z" style="fill:#263238"></path><path d="M238.3,182.45c.08.58.53,1,.9.9s.58-.61.47-1.19-.53-1-.9-.9S238.19,181.9,238.3,182.45Z" style="fill:#263238"></path><path d="M236.29,183.16a20.94,20.94,0,0,0,3.77,4.36,3.38,3.38,0,0,1-2.66,1.09Z" style="fill:#de5753"></path><path d="M229.33,182.11a.34.34,0,0,0,.3-.2,2.8,2.8,0,0,1,1.93-1.58.36.36,0,0,0,.3-.39.34.34,0,0,0-.39-.29h0a3.41,3.41,0,0,0-2.46,2,.34.34,0,0,0,.15.46h0A.45.45,0,0,0,229.33,182.11Z" style="fill:#263238"></path><path d="M240.63,179.62a.31.31,0,0,0,.21,0,.35.35,0,0,0,.07-.48h0a3.42,3.42,0,0,0-2.83-1.4.34.34,0,0,0-.31.37h0a.35.35,0,0,0,.37.32h0a2.78,2.78,0,0,1,2.22,1.14A.32.32,0,0,0,240.63,179.62Z" style="fill:#263238"></path><path d="M223.18,188.59c-.59.34,1,5.88,1,5.88s-3.05-.76-5.59-5c-5-8.45-4-10.86-2.07-12.84,3.63-3.67,10.46-.2,10.46-.2a2.57,2.57,0,0,0-2.19,3.94c1.67,2.33,1.23,6.74-.35,8.85C224.41,189.18,224.06,188.07,223.18,188.59Z" style="fill:#263238"></path><path d="M218.75,190.49a6.88,6.88,0,0,0,4.57,2.6c2.39.29,3.22-1.94,2.25-4-.87-1.84-3.18-4.26-5.43-3.57A3.07,3.07,0,0,0,218.75,190.49Z" style="fill:#e4897b"></path><path d="M221.9,174.2a11,11,0,0,0,9.87,3.78s-3-.27-4-1.13c0,0,6.84,1.25,12-.68s-2.06-8.5-5.18-8.35S220.37,169.37,221.9,174.2Z" style="fill:#263238"></path><path d="M237.58,191.38a16.25,16.25,0,0,0-1.41,2.1l-.42-.16c-1.88-.72-2.51-1.68-2.65-2.52a2.69,2.69,0,0,1,.13-1.23,2.65,2.65,0,0,1,.31-.63,9.42,9.42,0,0,0,3.4,2.18C237.33,191.29,237.58,191.38,237.58,191.38Z" style="fill:#263238"></path><path d="M236.94,191.12l-.43.61c-1.77-.69-2.93-1.41-3.28-2.16a2.65,2.65,0,0,1,.31-.63A9.42,9.42,0,0,0,236.94,191.12Z" style="fill:#fff"></path><path d="M235.75,193.32c-1.88-.72-2.51-1.68-2.65-2.52A6.59,6.59,0,0,1,235,192,2.45,2.45,0,0,1,235.75,193.32Z" style="fill:#de5753"></path><path d="M250,257.55l-40.45-2.08c.56-19.7-.47-45.79-1.36-53.11l3.37-4.92s11,10.79,16.11,10.84a44.49,44.49,0,0,0,22.05-6C253.33,220.13,251.41,244.59,250,257.55Z" style="fill:#407BFF"></path><path d="M250,257.55l-40.45-2.08c.56-19.7-.47-45.79-1.36-53.11l3.37-4.92s11,10.79,16.11,10.84a44.49,44.49,0,0,0,22.05-6C253.33,220.13,251.41,244.59,250,257.55Z" style="fill:#fff;opacity:0.6000000000000001;isolation:isolate"></path><path d="M230.71,210.44l.81.7L236,215s4.81,19.41,23.61,22.61l3.26-2.68-2.63-3.26s-16.41.23-22.14-17.79l.71-5-2.48-.19-4-.3" style="fill:#407BFF"></path><path d="M225,202.67l9.68,5.27.86-3.58,3.59,1.57a3.06,3.06,0,0,1,1.77,3.32l-.72,3.94L235.29,210l-2.8,3.4-11.6-6.7Z" style="fill:#407BFF"></path><path d="M225,202.67l9.68,5.27.86-3.58,3.59,1.57a3.06,3.06,0,0,1,1.77,3.32l-.72,3.94L235.29,210l-2.8,3.4-11.6-6.7Z" style="fill:#fff;opacity:0.5;isolation:isolate"></path><path d="M211.58,197.44s-9-11.83-7.23-18.88,13.17-21.91,13.17-21.91l-2.59-3.94s-16.41,13.6-18.78,25.24,12.95,39.73,12.95,39.73S214.81,203,211.58,197.44Z" style="fill:#407BFF"></path><path d="M211.58,197.44s-9-11.83-7.23-18.88,13.17-21.91,13.17-21.91l-2.59-3.94s-16.41,13.6-18.78,25.24,12.95,39.73,12.95,39.73S214.81,203,211.58,197.44Z" style="fill:#fff;opacity:0.5;isolation:isolate"></path></g></g></svg>